<svg width="1366" height="1084" viewBox="0 0 1366 1084" fill="none" xmlns="http://www.w3.org/2000/svg">
<path fill-rule="evenodd" clip-rule="evenodd" d="M0.110735 4.51667V9.03333H-4.41207H-8.93487V18.0667V27.1H-3.61877H1.69643L3.62405 35.4558C4.68329 40.0511 5.54805 44.1161 5.54443 44.4892C5.54081 44.8622 2.28168 45.1667 -1.69839 45.1667H-8.93487V54.0708V62.975L0.15144 63.6001C5.14914 63.9433 10.0139 64.5116 10.9627 64.862C13.3128 65.7301 23.4086 86.1473 21.1463 85.4562C13.5887 83.1491 7.38793 82.0145 -0.115405 81.5656L-8.93487 81.0371V90.0677V99.0984L-1.47225 99.6557C27.9757 101.856 55.4635 122.438 66.2468 150.361C85.8884 201.225 52.0976 255.154 -2.82909 260.602L-8.93487 261.207V270.298V279.39L-1.62964 278.781C60.2713 273.626 102.302 215.463 87.2814 155.745C85.3755 148.17 85.0897 148.232 96.3524 153.773C108.036 159.521 107.32 157.754 107.237 180.667C107.01 243.203 61.8579 291.215 -1.92453 296.743L-8.93487 297.351V306.437V315.523L-0.674424 314.9C72.0767 309.415 125.843 252.113 125.913 179.989C125.92 171.915 126.155 165.31 126.434 165.31C126.712 165.31 129.238 165.88 132.046 166.576C134.854 167.272 138.736 168.114 140.673 168.447L144.195 169.053L143.684 184.571C141.085 263.619 78.7894 328.375 1.69372 332.169L-8.93487 332.692V342.132V351.571L-4.41116 351.258L0.11164 350.945V359.978V369.012L-4.44373 368.696L-9 368.381L-8.7413 377.73L-8.48259 387.078L-3.2877 387.349C1.21249 387.583 1.96961 387.886 2.3658 389.608C4.90762 400.648 5.51368 403.493 5.52453 404.439C5.53448 405.26 3.69732 405.398 -1.69839 404.982L-8.93487 404.426V413.515V422.606L-1.92453 423.241C13.0839 424.602 11.6421 423.704 17.4313 435.292C21.9803 444.398 22.3276 445.471 20.5972 445.081C8.88316 442.445 4.62449 441.697 -1.62964 441.175L-8.93487 440.566V449.585V458.603L-0.206766 459.675C53.1053 466.218 85.485 519.777 66.2468 569.596C55.4635 597.519 27.9757 618.1 -1.47225 620.301L-8.93487 620.858V629.889V638.92L-0.115405 638.394C59.4553 634.844 102.2 574.408 87.1105 515.069C86.2032 511.498 85.5383 508.577 85.6342 508.577C87.1883 508.577 105.948 518.984 106.422 520.11C107.954 523.744 107.978 550.434 106.457 559.163C97.218 612.205 52.8394 652.732 0.0193739 656.366L-8.93487 656.982V666.024V675.066L1.24144 674.48C71.0817 670.456 125.876 611.201 125.892 539.683L125.895 525.172L134.689 527.137L143.484 529.1L143.372 544.358C142.815 621.068 82.186 685.125 3.50284 692.136L-8.93487 693.243V702.083V710.923H-4.41207H0.110735V719.957V728.99H-4.41207H-8.93487V738.023V747.057H-4.01316C-1.30581 747.057 1.16998 747.479 1.49019 747.996C2.09896 748.98 5.5381 762.812 5.5381 764.277C5.5381 764.743 2.28168 765.123 -1.69839 765.123H-8.93487V774.027V782.932L0.15144 783.557C5.14914 783.9 10.0139 784.468 10.9627 784.819C13.3128 785.687 23.4086 806.104 21.1463 805.413C13.5887 803.106 7.38793 801.971 -0.115405 801.522L-8.93487 800.994V810.024V819.055L-1.47225 819.612C27.945 821.81 55.4744 842.423 66.2468 870.317C85.8938 921.195 52.1112 975.109 -2.82909 980.558L-8.93487 981.164V990.255V999.347L-1.62964 998.738C60.2658 993.584 102.305 935.434 87.2914 875.745C85.3737 868.121 85.0834 868.186 96.3524 873.729C108.036 879.478 107.32 877.71 107.237 900.623C107.01 963.159 61.8579 1011.17 -1.92453 1016.7L-8.93487 1017.31V1026.39V1035.48L-0.674424 1034.86C72.0767 1029.37 125.843 972.07 125.913 899.946C125.92 891.873 126.155 885.267 126.434 885.267C126.712 885.267 129.238 885.837 132.046 886.532C134.854 887.229 138.736 888.071 140.673 888.404L144.195 889.01L143.684 904.528C141.088 983.469 79.627 1047.49 1.91986 1052.2L-8.48259 1052.83L-8.7413 1062.18L-9 1071.53L-4.44373 1071.22L0.11164 1070.9V1077.45L0.110735 1084H9.12016H18.1287L18.3919 1076.58L18.6542 1069.16L24.9862 1067.71C28.4687 1066.92 32.437 1065.98 33.8056 1065.63L36.2932 1065V1074.5V1084H45.2004H54.1085L54.682 1073.39C55.4943 1058.36 54.8955 1059.37 66.358 1053.63C78.0224 1047.79 77.3286 1047.64 75.0925 1055.56C73.3928 1061.58 71.6995 1077.66 72.3128 1081.97C72.5896 1083.92 72.9577 1084 81.5845 1084H90.5668V1077.84C90.5668 1020 155.004 981.408 207.516 1007.8C233.857 1021.03 249.787 1045.5 252.163 1076.37L252.75 1084H261.8H270.851L270.291 1074.29C266.777 1013.28 206.818 968.723 148.161 983.521C143.769 984.63 140.082 985.537 139.968 985.537C139.855 985.537 142.058 980.975 144.864 975.399C150.983 963.241 150.214 963.597 170.62 963.498C233.254 963.196 282.192 1008.63 287.984 1072.46L289.031 1084H298.032H307.034L306.483 1073.84C302.462 999.603 241.435 942.989 167.638 945.03C156.902 945.328 156.529 945.275 156.934 943.532C157.164 942.538 158.033 938.594 158.867 934.767L160.38 927.81L164.433 927.203C170.103 926.354 186.85 927.553 198.662 929.653C267.531 941.9 320.901 1002.3 323.674 1071.13L324.193 1084H333.566H342.939V1077.68V1071.35H351.533H360.126V1077.68V1084H369.624H379.122V1076.51V1069.01L386.965 1067.39C391.279 1066.49 395.307 1065.57 395.917 1065.33C396.766 1065.01 396.911 1067.13 396.536 1074.45L396.049 1084H405.108H414.166L414.831 1075.19C415.196 1070.35 415.757 1064.65 416.078 1062.52L416.661 1058.66L426.586 1053.77C438.343 1047.97 437.478 1047.64 435.212 1056.99C434.2 1061.16 433.112 1068.95 432.794 1074.29L432.214 1084H441.265H450.315L450.902 1076.37C455.282 1019.46 509.699 984.551 562.074 1005.05C591.041 1016.39 612.498 1047.12 612.498 1077.28V1084H621.544H630.59L630.574 1075.64C630.477 1024.09 586.071 981.712 531.992 981.565C516.605 981.523 514.192 981.817 502.365 985.171C500.506 985.698 500.762 984.849 505.285 975.48C511.035 963.573 509.829 964.262 526.565 963.313C590.78 959.668 648.624 1013.74 648.675 1077.45L648.681 1084H657.866H667.05L666.492 1071.58C663.339 1001.4 604.268 945.605 532.897 945.387L517.067 945.338L518.853 936.556L520.638 927.773L524.732 927.152C530.278 926.311 553.181 928.228 563.2 930.373C633.135 945.345 684.863 1008.4 684.863 1078.68V1084H693.909H702.954V1077.45V1070.9H712H721.046V1077.45V1084H730.055H739.064L739.327 1076.58L739.589 1069.16L745.921 1067.71C749.404 1066.92 753.372 1065.98 754.74 1065.63L757.228 1065V1074.5V1084H766.135H775.043L775.617 1073.39C776.429 1058.36 775.83 1059.37 787.293 1053.63C798.957 1047.79 798.263 1047.64 796.027 1055.56C794.328 1061.58 792.634 1077.66 793.248 1081.97C793.524 1083.92 793.893 1084 802.519 1084H811.502V1077.84C811.502 1033.37 852.232 996.191 897.435 999.397C938.966 1002.34 969.815 1033.73 973.098 1076.37L973.685 1084H982.735H991.786L991.226 1074.29C987.712 1013.28 927.753 968.723 869.096 983.521C864.703 984.63 861.033 985.537 860.938 985.537C860.844 985.537 863.013 980.908 865.758 975.251L870.75 964.967L879.764 963.834C944.54 955.7 1002.77 1004.67 1008.92 1072.46L1009.97 1084H1018.97H1027.97L1027.42 1073.84C1023.4 999.603 962.37 942.989 888.573 945.03C877.837 945.328 877.464 945.275 877.868 943.532C878.099 942.538 878.968 938.594 879.801 934.767L881.315 927.81L885.368 927.203C891.038 926.354 907.785 927.553 919.597 929.653C988.266 941.865 1041.86 1002.33 1044.61 1070.68L1045.14 1084H1054.51H1063.87V1077.68V1071.35H1072.47H1081.06V1077.68V1084H1090.56H1100.06V1076.51V1069.01L1107.9 1067.39C1112.21 1066.49 1116.24 1065.57 1116.85 1065.33C1117.7 1065.01 1117.85 1067.13 1117.47 1074.45L1116.98 1084H1126.04H1135.1L1135.77 1075.19C1136.13 1070.35 1136.69 1064.65 1137.01 1062.52L1137.6 1058.66L1147.52 1053.77C1159.28 1047.97 1158.41 1047.64 1156.15 1056.99C1155.14 1061.16 1154.05 1068.95 1153.73 1074.29L1153.15 1084H1162.2H1171.25L1171.84 1076.37C1176.22 1019.46 1230.63 984.551 1283.01 1005.05C1312.22 1016.48 1333.43 1047.1 1333.43 1077.84V1084H1342.48H1351.52L1351.51 1075.64C1351.41 1024.09 1307.01 981.712 1252.93 981.565C1237.54 981.523 1235.13 981.817 1223.3 985.171C1221.44 985.698 1221.7 984.849 1226.22 975.48C1231.97 963.573 1230.76 964.262 1247.5 963.313C1311.6 959.674 1369.56 1013.85 1369.61 1077.45L1369.62 1084H1378.8H1387.98L1387.43 1071.58C1384.27 1001.4 1325.2 945.605 1253.83 945.387L1238 945.338L1239.79 936.556L1241.57 927.773L1245.67 927.152C1251.21 926.311 1274.12 928.228 1284.13 930.373C1354.07 945.345 1405.8 1008.4 1405.8 1078.68V1084H1414.84H1423.89L1423.89 1077.45V1070.9L1428.41 1071.22L1432.93 1071.53V1061.96V1052.38H1427.52C1422.66 1052.38 1422.07 1052.18 1421.65 1050.35C1419.15 1039.54 1418.49 1036.42 1418.48 1035.47C1418.47 1034.65 1420.3 1034.52 1425.7 1034.93L1432.93 1035.49V1026.4V1017.31L1425.92 1016.67C1410.92 1015.31 1412.36 1016.21 1406.57 1004.62C1402.02 995.515 1401.67 994.443 1403.4 994.832C1415.12 997.469 1419.38 998.217 1425.63 998.738L1432.93 999.347V990.255V981.164L1426.83 980.558C1371.86 975.106 1338.1 921.22 1357.75 870.317C1368.54 842.394 1396.02 821.813 1425.47 819.612L1432.93 819.055V810.024V800.994L1424.12 801.52C1364.57 805.068 1321.81 865.535 1336.89 924.844C1337.8 928.415 1338.46 931.337 1338.37 931.337C1336.81 931.337 1318.05 920.929 1317.58 919.804C1316.05 916.17 1316.02 889.479 1317.54 880.75C1326.78 827.708 1371.16 787.181 1423.98 783.548L1432.93 782.932V773.889V764.847L1422.76 765.433C1352.93 769.457 1298.11 828.73 1298.09 900.228L1298.09 914.738L1289.3 912.775L1280.52 910.813L1280.63 895.556C1281.19 818.761 1341.73 754.796 1420.5 747.777L1432.93 746.67V737.83V728.99H1428.41H1423.89V719.957V710.923H1428.41H1432.93V701.89V692.857H1428.01C1421.75 692.857 1422.16 693.539 1418.87 677.726L1418.26 674.79H1425.6H1432.93V665.886V656.982L1423.85 656.357C1418.85 656.013 1413.99 655.445 1413.04 655.095C1410.69 654.227 1400.59 633.809 1402.85 634.5C1410.41 636.808 1416.61 637.942 1424.12 638.391L1432.93 638.92V629.889V620.858L1425.47 620.301C1396.06 618.103 1368.53 597.49 1357.75 569.596C1338.1 518.693 1371.86 464.807 1426.83 459.355L1432.93 458.75V449.659V440.566L1425.63 441.175C1363.63 446.339 1321.77 504.383 1336.77 564.39C1338.62 571.764 1338.88 571.712 1327.65 566.184C1315.96 560.435 1316.68 562.203 1316.76 539.29C1316.99 476.754 1362.14 428.742 1425.92 423.213L1432.93 422.606V413.52V404.434L1424.67 405.056C1351.92 410.541 1298.16 467.844 1298.09 539.967C1298.08 548.041 1297.85 554.647 1297.57 554.647C1297.29 554.647 1294.76 554.077 1291.95 553.381C1289.15 552.685 1285.26 551.843 1283.33 551.509L1279.81 550.903L1280.32 535.386C1282.91 456.444 1344.37 392.421 1422.08 387.709L1432.48 387.078L1432.74 377.73L1433 368.381L1428.44 368.696L1423.89 369.012V359.978V350.945L1428.41 351.258L1432.93 351.571V341.999V332.427H1427.52C1422.65 332.427 1422.07 332.225 1421.66 330.394C1421.41 329.276 1420.59 325.593 1419.83 322.208C1419.08 318.823 1418.46 315.686 1418.46 315.235C1418.46 314.767 1421.56 314.655 1425.7 314.974L1432.93 315.531V306.441V297.351L1425.92 296.715C1410.9 295.354 1412.37 296.273 1406.49 284.526C1403.63 278.826 1401.29 274.07 1401.29 273.958C1401.28 273.846 1402.39 274.176 1403.74 274.691C1407.88 276.263 1417.93 278.14 1425.63 278.781L1432.93 279.39V270.298V261.207L1426.83 260.602C1365.34 254.502 1332.35 188.647 1364.73 136.643C1377.62 115.957 1401.44 101.452 1425.47 99.6557L1432.93 99.0984V89.9512V80.805L1424.4 81.4274C1363.98 85.8402 1321.76 145.404 1336.89 204.888C1337.8 208.459 1338.46 211.38 1338.37 211.38C1336.81 211.38 1318.05 200.973 1317.58 199.847C1316.05 196.213 1316.02 169.522 1317.54 160.793C1326.79 107.732 1371.14 67.2252 1423.98 63.5911L1432.93 62.975V53.9353V44.8957L1423.21 45.4178C1353.25 49.1748 1298.11 108.601 1298.09 180.271L1298.09 194.781L1289.3 192.818L1280.52 190.856L1280.63 175.599C1281.18 98.8752 1341.8 34.8325 1420.5 27.8209L1432.93 26.7134V17.8734V9.03333H1428.41H1423.89V4.51667V0H1414.84H1405.8V5.30889V10.6169L1397.43 12.5419C1392.83 13.5997 1388.76 14.4633 1388.39 14.4597C1388.01 14.456 1387.71 11.2013 1387.71 7.22667V0H1378.79H1369.87L1369.25 9.07398C1368.9 14.0649 1368.34 18.923 1367.98 19.8706C1367.12 22.2175 1346.67 32.2996 1347.36 30.0403C1349.67 22.493 1350.81 16.3006 1351.26 8.8075L1351.79 0H1342.74H1333.7L1333.14 7.4525C1329.05 62.0382 1268.9 96.6196 1218.81 73.179C1192.06 60.6597 1174.97 36.1866 1171.98 6.0975L1171.37 0H1162.27H1153.17L1153.77 7.29532C1158.95 69.2522 1217.03 111.022 1277.16 96.0316C1284.54 94.1906 1284.49 93.9241 1278.95 105.144C1273.2 116.812 1274.97 116.097 1252.02 116.014C1189.16 115.787 1141.61 71.0246 1135.75 6.54917L1135.15 0H1126.07H1116.98L1117.61 8.24924C1123.1 80.9016 1180.48 134.595 1252.7 134.664C1260.79 134.672 1267.4 134.965 1267.39 135.315C1267.39 135.665 1267.01 137.374 1266.56 139.113C1266.1 140.852 1265.25 144.67 1264.66 147.597L1263.6 152.92L1248.09 152.411C1169.02 149.818 1104.11 87.5375 1100.31 10.6142L1099.79 0H1090.34H1080.89L1081.2 4.51757L1081.51 9.03424H1072.47H1063.42L1063.74 4.51757L1064.05 0H1054.46H1044.88V5.40284C1044.88 10.2691 1044.68 10.8508 1042.84 11.2591C1041.72 11.5085 1038.04 12.3287 1034.65 13.083C1031.26 13.8364 1028.12 14.4533 1027.66 14.4533C1027.2 14.4533 1027.08 11.3558 1027.4 7.22667L1027.96 0H1018.86H1009.76L1009.12 7.00083C1007.76 21.9889 1008.66 20.549 997.051 26.3304C987.933 30.8732 986.859 31.2201 987.249 29.492C989.889 17.7939 990.638 13.541 991.16 7.29532L991.77 0H982.665H973.562L972.956 6.0975C967.5 60.9497 913.498 94.6946 862.565 75.0796C834.604 64.311 813.995 36.8605 811.791 7.4525L811.233 0H802.073H792.915L793.538 8.52024C797.958 68.8728 857.586 111.025 917.166 95.915C920.742 95.009 923.667 94.345 923.667 94.4408C923.667 95.9927 913.246 114.727 912.119 115.2C908.48 116.731 881.753 116.754 873.012 115.236C819.86 106.002 779.318 61.7284 775.677 8.9421L775.061 0H766.009H756.957L757.48 9.71083C761.228 79.3163 820.839 134.664 892.064 134.669L907.045 134.67L905.08 143.441L903.116 152.212L887.838 152.101C810.939 151.543 746.887 91.0831 739.859 12.4208L738.75 0H729.898H721.046V4.51667V9.03333H712H702.954V4.51667V0H693.909H684.863V5.30889V10.6169L676.496 12.5419C671.895 13.5997 667.824 14.4633 667.45 14.4597C667.077 14.456 666.772 11.2013 666.772 7.22667V0H657.856H648.939L648.314 9.07398C647.97 14.0649 647.401 18.923 647.05 19.8706C646.181 22.2175 625.736 32.2996 626.428 30.0403C628.738 22.493 629.874 16.3006 630.324 8.8075L630.853 0H621.81H612.767L612.209 7.4525C610.005 36.8605 589.396 64.311 561.435 75.0796C510.502 94.6946 456.5 60.9497 451.044 6.0975L450.438 0H441.335H432.23L432.84 7.29532C438.01 69.2107 496.134 111.012 556.222 96.0316C563.606 94.1906 563.553 93.9241 558.018 105.144C552.262 116.812 554.032 116.097 531.088 116.014C468.467 115.787 420.39 70.6967 414.854 7.00083L414.245 0H405.147H396.049L396.672 8.24924C402.164 80.9016 459.544 134.595 531.766 134.664C539.851 134.672 546.463 134.965 546.46 135.315C546.457 135.665 546.08 137.374 545.622 139.113C545.164 140.852 544.311 144.67 543.727 147.597L542.665 152.92L527.153 152.411C448.094 149.818 383.175 87.5249 379.379 10.6142L378.856 0H369.403H359.951L360.264 4.51757L360.578 9.03424H351.533H342.487L342.801 4.51757L343.114 0H333.529H323.943V5.40284C323.943 10.2691 323.742 10.8508 321.908 11.2591C320.788 11.5085 317.1 12.3287 313.711 13.083C310.322 13.8364 307.18 14.4533 306.729 14.4533C306.26 14.4533 306.148 11.3558 306.467 7.22667L307.025 0H297.923H288.82L288.183 7.00083C286.821 21.9889 287.72 20.549 276.117 26.3304C266.998 30.8732 265.924 31.2201 266.314 29.492C268.954 17.7939 269.703 13.541 270.225 7.29532L270.835 0H261.73H252.627L252.021 6.0975C246.566 60.9497 192.563 94.6946 141.63 75.0796C113.669 64.311 93.0598 36.8605 90.8563 7.4525L90.2981 0H81.1386H71.9799L72.6031 8.52024C77.0228 68.8728 136.651 111.025 196.231 95.915C199.807 95.009 202.732 94.345 202.732 94.4408C202.732 95.9927 192.311 114.727 191.184 115.2C187.545 116.731 160.818 116.754 152.077 115.236C98.9249 106.002 58.3834 61.7284 54.7426 8.9421L54.1257 0H45.0737H36.0218L36.5446 9.71083C40.3067 79.5764 99.8132 134.638 171.581 134.661L186.111 134.665L184.145 143.438L182.181 152.212L166.903 152.101C90.0747 151.544 25.945 91.0108 18.9238 12.4208L17.8148 0H8.96277H0.110735V4.51667ZM108.225 5.19417C114.797 61.9271 182.878 83.412 219.756 40.3925C227.89 30.9048 234.392 14.5852 234.392 3.66121V0H225.523H216.654L215.534 6.65576C210.465 36.7846 178.586 53.4105 151.378 40.117C138.909 34.025 128.01 18.7731 126.982 5.97645L126.501 0H117.062H107.623L108.225 5.19417ZM144.313 3.80123C147.015 20.6719 163.75 30.8055 180.24 25.5553C189.395 22.6402 198.21 11.3549 198.21 2.54921V0H189.164C181.475 0 180.118 0.2168 180.118 1.44533C180.118 9.60876 164.859 10.7524 163.248 2.7091L162.706 0H153.205H143.704L144.313 3.80123ZM468.673 3.66121C468.673 14.5852 475.175 30.9048 483.309 40.3925C520.187 83.412 588.268 61.9271 594.84 5.19417L595.442 0H586.003H576.564L576.083 5.97645C575.055 18.7731 564.156 34.025 551.687 40.117C524.479 53.4105 492.601 36.7846 487.531 6.65576L486.412 0H477.542H468.673V3.66121ZM504.856 2.54921C504.856 11.3549 513.671 22.6402 522.825 25.5553C539.315 30.8055 556.05 20.6719 558.752 3.80123L559.361 0H549.86H540.36L539.817 2.7091C538.206 10.7524 522.947 9.60876 522.947 1.44533C522.947 0.2168 521.59 0 513.901 0H504.856V2.54921ZM829.16 5.19417C835.732 61.9271 903.813 83.412 940.691 40.3925C948.825 30.9048 955.327 14.5852 955.327 3.66121V0H946.458H937.588L936.469 6.65576C931.399 36.7846 899.521 53.4105 872.313 40.117C859.844 34.025 848.945 18.7731 847.917 5.97645L847.436 0H837.997H828.558L829.16 5.19417ZM865.248 3.80123C867.95 20.6719 884.685 30.8055 901.175 25.5553C910.329 22.6402 919.144 11.3549 919.144 2.54921V0H910.099C902.41 0 901.053 0.2168 901.053 1.44533C901.053 9.60876 885.794 10.7524 884.183 2.7091L883.64 0H874.14H864.639L865.248 3.80123ZM1189.61 3.66121C1189.61 14.5852 1196.11 30.9048 1204.24 40.3925C1241.12 83.412 1309.2 61.9271 1315.78 5.19417L1316.38 0H1306.94H1297.5L1297.02 5.97645C1295.99 18.7731 1285.09 34.025 1272.62 40.117C1245.41 53.4105 1213.54 36.7846 1208.47 6.65576L1207.35 0H1198.48H1189.61V3.66121ZM1225.79 2.54921C1225.79 11.3549 1234.61 22.6402 1243.76 25.5553C1260.25 30.8055 1276.98 20.6719 1279.69 3.80123L1280.3 0H1270.8H1261.29L1260.75 2.7091C1259.14 10.7524 1243.88 9.60876 1243.88 1.44533C1243.88 0.2168 1242.52 0 1234.84 0H1225.79V2.54921ZM363.771 33.875C364.568 37.3528 365.492 41.2607 365.825 42.5587L366.431 44.9201L348.579 45.4169C273.945 47.4964 217.099 104.872 216.815 178.408L216.753 194.668L207.959 192.885L199.164 191.103L198.542 187.013C197.699 181.475 199.62 158.604 201.767 148.598C217.01 77.5927 280.232 26.5851 351.953 27.4297L362.324 27.5517L363.771 33.875ZM723.34 29.5842C723.627 30.9509 724.449 34.5904 725.167 37.6744C725.885 40.7575 726.473 43.6518 726.473 44.1062C726.473 44.5605 718.637 45.1576 709.06 45.4331C633.625 47.5984 577.18 105.3 577.156 180.271L577.152 194.781L568.367 192.818L559.582 190.856L559.693 175.599C560.285 93.9783 627.951 28.1479 712.209 27.2174L722.82 27.1L723.34 29.5842ZM1084.71 33.875C1085.5 37.3528 1086.43 41.2607 1086.76 42.5587L1087.37 44.9201L1069.51 45.4169C994.844 47.4973 938.123 104.754 937.767 178.408L937.688 194.668L928.894 192.885L920.099 191.103L919.51 187.176C917.918 176.578 921.62 149.255 926.818 133.242C947.386 69.8701 1006.99 26.6944 1072.89 27.4351L1083.26 27.5517L1084.71 33.875ZM370.981 64.6678C372.783 65.1294 374.213 67.2685 378.021 75.2016C383.179 85.9476 383.244 86.3063 379.781 84.9919C369.781 81.1952 345.611 79.9866 332.747 82.6405C284.762 92.5384 253.081 131.131 253.017 179.763C252.997 195.084 253.31 197.641 256.64 209.35C257.168 211.207 256.318 210.951 246.935 206.434C235.012 200.693 235.703 201.897 234.752 185.183C231.458 127.297 274.732 74.0462 332.762 64.5775C340.63 63.2939 365.846 63.3535 370.981 64.6678ZM731.631 64.7428C734.221 65.7265 744.561 86.2159 742.081 85.4526C667.554 62.5071 596.788 129.518 615.955 204.888C616.862 208.459 617.527 211.38 617.431 211.38C615.877 211.38 597.117 200.973 596.643 199.847C595.111 196.213 595.087 169.522 596.608 160.793C605.394 110.356 645.584 71.3272 696.17 64.1096C702.604 63.1909 728.775 63.6588 731.631 64.7428ZM1091.92 64.6678C1093.72 65.1294 1095.15 67.2685 1098.96 75.2016C1104.11 85.9476 1104.18 86.3063 1100.72 84.9919C1090.72 81.1952 1066.55 79.9866 1053.68 82.6405C1005.68 92.5429 974.016 131.11 973.952 179.763C973.932 195.084 974.245 197.641 977.574 209.35C978.103 211.207 977.252 210.951 967.87 206.434C955.947 200.693 956.638 201.897 955.687 185.183C952.4 127.431 995.801 74.0236 1053.7 64.5775C1061.56 63.2939 1086.78 63.3535 1091.92 64.6678ZM367.077 100.676C419.39 111.793 447.177 167.147 424.366 214.801C392.316 281.755 294.473 273.256 273.713 201.713C257.213 144.852 309.366 88.4137 367.077 100.676ZM733.5 102.044C823.18 128.69 805.296 260.438 712 260.438C613.383 260.438 602.204 118.753 699.336 99.943C705.312 98.7858 727.029 100.122 733.5 102.044ZM1086.1 100.316C1139.54 109.77 1168.99 167.965 1144.7 216.157C1114.9 275.308 1030.04 275.308 1000.23 216.157C970.687 157.524 1021.55 88.8997 1086.1 100.316ZM-8.93487 125.826V135.252L-2.9503 135.732C9.86371 136.759 25.1363 147.644 31.2367 160.095C44.5482 187.266 27.8997 219.102 -2.27007 224.164L-8.93487 225.282V234.139V242.997H-5.73092C16.3983 242.997 40.5844 226.016 49.4346 204.266C65.6235 164.477 39.7594 122.026 -3.73365 117.001L-8.93487 116.4V125.826ZM342.385 117.376C281.655 127.002 268.565 209.245 323.457 236.298C377.429 262.897 434.466 206.223 408.08 152.212C396.267 128.029 368.401 113.253 342.385 117.376ZM702.734 117.455C655.424 124.88 632.762 180.702 661.814 218.253C698.783 266.038 774.763 240.157 774.808 179.763C774.836 141.368 740.348 111.552 702.734 117.455ZM1063.32 117.376C1002.59 127.002 989.5 209.245 1044.39 236.298C1098.36 262.897 1155.4 206.223 1129.02 152.212C1117.2 128.029 1089.34 113.253 1063.32 117.376ZM1423.67 117.51C1382.02 123.602 1357.84 169.224 1376.01 207.413C1385.51 227.386 1409.08 242.997 1429.73 242.997H1432.93V234.139V225.282L1426.27 224.164C1396.1 219.102 1379.45 187.266 1392.76 160.095C1398.86 147.644 1414.14 136.759 1426.95 135.732L1432.93 135.252V125.891C1432.93 115.231 1433.81 116.026 1423.67 117.51ZM364.954 137.327C397.346 147.318 406.982 189.08 382.231 212.202C352.073 240.375 304.355 217.796 306.996 176.602C308.81 148.279 337.479 128.852 364.954 137.327ZM731.177 139.778C770.892 159.432 762.32 216.782 718.558 224.187C689.108 229.172 662.02 201.295 667.976 172.132C673.982 142.719 705.014 126.833 731.177 139.778ZM1085.89 137.327C1118.28 147.318 1127.92 189.08 1103.17 212.202C1073.01 240.375 1025.29 217.796 1027.93 176.602C1029.75 148.279 1058.41 128.852 1085.89 137.327ZM467.791 167.537C476.774 238.868 413.09 303.669 341.246 296.301C335.461 295.708 330.578 295.077 330.394 294.898C329.687 294.208 320.44 275.101 320.692 274.849C320.839 274.703 324.581 275.489 329.009 276.596C374.455 287.959 426.596 260.938 443.451 217.288C450.733 198.431 452.558 174.597 448.077 156.883C446.967 152.496 446.059 148.83 446.059 148.736C446.059 148.642 450.694 150.808 456.358 153.549L466.657 158.535L467.791 167.537ZM1188.73 167.537C1197.71 238.856 1134.01 303.668 1062.18 296.301C1056.4 295.708 1051.51 295.077 1051.33 294.898C1050.62 294.208 1041.37 275.101 1041.63 274.849C1041.77 274.703 1045.52 275.489 1049.94 276.596C1062.27 279.679 1084.31 279.449 1096.89 276.107C1152.11 261.436 1182.92 206.476 1167.39 150.359C1166.95 148.763 1168.31 149.2 1177.23 153.521L1187.59 158.535L1188.73 167.537ZM817.747 153.99C828.896 159.432 828.255 157.792 828.172 180.667C827.965 237.858 789.293 284.21 732.805 294.975C723.519 296.745 702.273 297.142 694.813 295.685L690.743 294.89L685.552 284.526C682.697 278.826 680.357 274.078 680.35 273.976C680.345 273.874 681.867 274.322 683.732 274.972C699.493 280.464 724.329 280.06 743.207 274.005C789.749 259.077 820.022 207.276 809.37 160.793C806.72 149.233 806.654 148.789 807.627 149.155C808.134 149.345 812.688 151.522 817.747 153.99ZM-8.93487 161.92V171.408L-6.22209 171.949C1.83211 173.558 0.68694 188.797 -7.48757 188.797C-8.71778 188.797 -8.93487 190.152 -8.93487 197.83V206.863H-6.3822C2.43546 206.863 13.7361 198.06 16.6552 188.919C21.9125 172.451 11.7651 155.738 -5.12848 153.04L-8.93487 152.432V161.92ZM344.296 153.873C314.085 163.867 319.948 206.431 351.533 206.405C386.355 206.377 387.748 155.41 352.992 153.025C350.199 152.832 346.286 153.214 344.296 153.873ZM703.243 154.284C684.187 161.085 678.763 184.565 692.958 198.8C713.512 219.412 747.484 197.593 737.273 170.339C732.266 156.976 716.518 149.546 703.243 154.284ZM1065.23 153.873C1035.02 163.867 1040.88 206.431 1072.47 206.405C1107.29 206.377 1108.68 155.41 1073.93 153.025C1071.13 152.832 1067.22 153.214 1065.23 153.873ZM1424.18 154.34C1397.33 163.606 1402.44 206.863 1430.38 206.863H1432.93V197.83C1432.93 190.445 1432.69 188.797 1431.59 188.797C1423.44 188.797 1422.2 173.551 1430.22 171.949L1432.93 171.408V162.035C1432.93 151.253 1432.99 151.299 1424.18 154.34ZM496.897 167.574L503.864 169.085L504.472 173.133C504.807 175.359 504.79 181.725 504.435 187.279C499.278 268.061 436.337 329.864 356.879 332.167L340.516 332.641L338.948 324.758C338.086 320.423 337.202 316.411 336.984 315.844C336.697 315.096 340.762 314.803 351.749 314.778C428.337 314.608 488.736 252.607 486.621 176.333C486.323 165.612 486.375 165.24 488.121 165.643C489.116 165.874 493.066 166.742 496.897 167.574ZM852.981 166.576C855.789 167.272 859.613 168.103 861.479 168.424L864.871 169.006V179.603C864.871 262.805 800.019 329.839 717.246 332.194L701.236 332.649L700.754 330.505C698.354 319.828 697.527 315.963 697.527 315.433C697.527 315.092 704.142 314.79 712.226 314.764C787.788 314.517 846.774 255.463 846.847 179.989C846.855 171.916 847.09 165.31 847.368 165.31C847.647 165.31 850.173 165.88 852.981 166.576ZM1217.83 167.574L1224.8 169.085L1225.41 173.133C1225.74 175.359 1225.72 181.725 1225.37 187.279C1220.21 268.061 1157.27 329.864 1077.81 332.167L1061.45 332.641L1059.88 324.758C1059.02 320.423 1058.14 316.411 1057.92 315.844C1057.63 315.096 1061.7 314.803 1072.68 314.778C1149.27 314.608 1209.67 252.607 1207.56 176.333C1207.26 165.612 1207.31 165.24 1209.06 165.643C1210.05 165.874 1214 166.742 1217.83 167.574ZM180.118 179.763V188.797H171.073H162.027V179.763V170.73H171.073H180.118V179.763ZM541.038 179.763V188.797H531.992H522.947V179.763V170.73H531.992H541.038V179.763ZM901.053 179.763V188.797H892.008H882.962V179.763V170.73H892.008H901.053V179.763ZM1261.97 179.763V188.797H1252.93H1243.88V179.763V170.73H1252.93H1261.97V179.763ZM357.695 174.167C363.13 179.832 359.43 188.345 351.533 188.345C348.023 188.345 346.935 187.915 345.122 185.81C340.169 180.061 343.979 171.633 351.533 171.633C354.441 171.633 355.801 172.192 357.695 174.167ZM716.573 172.564C723.824 176.439 720.343 188.797 712 188.797C708.562 188.797 702.954 183.785 702.954 180.712C702.954 173.912 710.57 169.355 716.573 172.564ZM1078.63 174.167C1084.06 179.832 1080.37 188.345 1072.47 188.345C1068.96 188.345 1067.87 187.915 1066.06 185.81C1061.1 180.061 1064.91 171.633 1072.47 171.633C1075.38 171.633 1076.74 172.192 1078.63 174.167ZM198.221 209.615C269.472 222.427 321.59 282.647 323.682 354.576L324.155 370.855L316.206 372.505C311.834 373.413 307.818 374.323 307.281 374.529C306.607 374.787 306.294 370.212 306.271 359.762C306.1 283.263 244.031 222.96 167.638 225.074C156.902 225.371 156.529 225.318 156.934 223.575C157.164 222.581 158.033 218.642 158.864 214.82C160.114 209.076 160.715 207.795 162.332 207.427C166.336 206.517 188.514 207.87 198.221 209.615ZM545.109 207.803C625.626 215.396 687.903 284.898 684.705 363.592L684.411 370.818L677.627 372.256C673.895 373.046 669.926 373.988 668.807 374.349L666.772 375.005V361.911C666.772 285.132 608.781 225.824 533.349 225.46L517.067 225.382L518.85 216.611C520.34 209.282 520.935 207.78 522.468 207.475C526.113 206.75 535.355 206.883 545.109 207.803ZM919.156 209.615C990.343 222.416 1042.81 283.013 1044.67 354.576L1045.09 370.855L1037.14 372.505C1032.77 373.413 1028.75 374.323 1028.22 374.529C1027.54 374.787 1027.23 370.212 1027.21 359.762C1027.03 283.263 964.966 222.96 888.573 225.074C877.837 225.371 877.464 225.318 877.868 223.575C878.099 222.581 878.967 218.642 879.799 214.82C881.049 209.076 881.65 207.795 883.267 207.427C887.271 206.517 909.448 207.87 919.156 209.615ZM1266.04 207.803C1346.29 215.371 1408.2 284.076 1405.61 362.687L1405.35 370.817L1398.56 372.255C1394.83 373.046 1390.92 373.97 1389.87 374.31C1387.98 374.919 1387.95 374.734 1387.46 357.064C1385.37 282.495 1327.94 225.728 1254.28 225.444L1238 225.382L1239.78 216.611C1241.27 209.282 1241.87 207.78 1243.4 207.475C1247.05 206.75 1256.29 206.883 1266.04 207.803ZM193.664 245.249C252.163 256.913 293.744 312.147 287.769 370.251C287.175 376.028 286.543 380.905 286.363 381.088C285.673 381.795 266.54 391.029 266.288 390.777C266.141 390.63 266.928 386.893 268.037 382.471C271.124 370.157 270.894 348.154 267.547 335.588C252.847 280.41 197.861 249.68 141.593 265.194C139.889 265.664 147.396 248.325 150.108 245.527C152.629 242.925 181.101 242.744 193.664 245.249ZM547.988 244.397C608.05 253.303 650.74 304.383 648.359 364.495C647.677 381.702 648.343 380.454 636.707 386.282C625.038 392.126 625.718 392.278 628.047 384.356C632.208 370.199 631.267 344.863 625.981 328.758C610.118 280.424 556.682 250.934 508.099 263.701C504.16 264.735 500.84 265.481 500.72 265.355C500.293 264.912 510.319 245.25 511.107 244.985C517.124 242.952 536.199 242.649 547.988 244.397ZM914.599 245.249C973.078 256.909 1014.68 312.166 1008.7 370.251C1008.11 376.028 1007.48 380.905 1007.3 381.088C1006.61 381.795 987.475 391.029 987.223 390.777C987.076 390.63 987.863 386.893 988.972 382.471C1000.35 337.067 973.312 285.025 929.583 268.184C910.7 260.912 886.834 259.09 869.096 263.565C864.703 264.673 861.033 265.58 860.938 265.58C860.844 265.58 863.013 260.947 865.758 255.283L870.75 244.987L877.082 244.048C885.195 242.845 905.864 243.507 914.599 245.249ZM1268.92 244.397C1328.98 253.303 1371.67 304.383 1369.29 364.495C1368.61 381.702 1369.28 380.454 1357.64 386.282C1345.97 392.126 1346.65 392.278 1348.98 384.356C1353.14 370.199 1352.2 344.863 1346.92 328.758C1331.05 280.424 1277.62 250.934 1229.03 263.701C1225.09 264.735 1221.78 265.481 1221.65 265.355C1221.23 264.912 1231.25 245.25 1232.04 244.985C1238.06 242.952 1257.13 242.649 1268.92 244.397ZM193.043 282.246C252.48 299.563 272.005 372.943 228.808 416.65C187.026 458.926 114.398 442.651 94.925 386.647C73.6226 325.385 131.121 264.205 193.043 282.246ZM545.998 280.508C604.106 290.627 631.896 358.767 597.566 406.952C561.051 458.203 481.294 449.034 457.015 390.795C432.633 332.306 483.242 269.579 545.998 280.508ZM913.978 282.246C973.414 299.563 992.94 372.943 949.743 416.65C905.377 461.54 829.382 440.527 813.767 379.05C798.745 319.916 855.405 265.181 913.978 282.246ZM1266.93 280.508C1331.86 291.815 1356.24 373.22 1308.24 418.439C1256.56 467.127 1172.16 430.868 1172.16 359.978C1172.16 309.338 1216.93 271.799 1266.93 280.508ZM156.154 298.6C116.441 308.599 96.5215 353.08 115.519 389.337C139.231 434.589 205.051 433.815 227.684 388.016C251.304 340.219 207.639 285.635 156.154 298.6ZM518.562 298.167C478.927 305.951 457.184 351.193 475.381 388.016C498.014 433.815 563.834 434.589 587.546 389.337C612.265 342.164 571.159 287.837 518.562 298.167ZM877.089 298.6C837.376 308.599 817.456 353.08 836.454 389.337C860.141 434.541 926.01 433.765 948.619 388.016C972.235 340.227 928.565 285.638 877.089 298.6ZM1238.45 298.479C1192.04 309.031 1173.76 367.205 1205.88 402.202C1244.86 444.69 1315.71 417.454 1315.71 359.978C1315.71 319.615 1277.9 289.513 1238.45 298.479ZM182.342 316.646C215.715 325.327 227.203 365.391 203.555 390.635C176.036 420.013 126.749 400.34 126.749 359.978C126.749 330.613 154.094 309.299 182.342 316.646ZM548.378 318.352C574.666 329.008 584.64 361.494 568.832 384.979C547.232 417.07 497.027 407.85 488.128 370.158C479.924 335.409 515.337 304.96 548.378 318.352ZM903.277 316.646C936.65 325.327 948.137 365.391 924.49 390.635C896.971 420.013 847.684 400.34 847.684 359.978C847.684 330.613 875.029 309.299 903.277 316.646ZM1269.31 318.352C1306.43 333.397 1306.43 386.656 1269.31 401.586C1244.34 411.63 1215.27 396.467 1209.06 370.158C1200.86 335.409 1236.27 304.96 1269.31 318.352ZM76.4701 330.846C66.0152 363.514 74.9731 402.246 98.886 427.775C118.018 448.199 141.91 458.322 171.073 458.36C186.414 458.38 188.975 458.068 200.7 454.742C202.559 454.215 202.303 455.064 197.78 464.433C192.03 476.34 193.236 475.651 176.5 476.6C109.114 480.425 51.886 423.492 54.7353 355.462C55.4789 337.708 54.7634 339.094 66.0206 333.62C77.1685 328.2 77.3304 328.157 76.4701 330.846ZM437.014 329.194C437.014 329.403 436.113 333.163 435.014 337.549C417.246 408.385 487.423 475.94 557.711 455.664C560.164 454.956 562.41 454.377 562.702 454.377C562.994 454.377 560.987 459.005 558.242 464.662L553.25 474.946L544.236 476.079C472.833 485.046 407.921 421.426 415.296 349.706C415.89 343.929 416.531 339.044 416.72 338.85C418.083 337.456 437.014 328.447 437.014 329.194ZM797.405 330.846C786.95 363.514 795.908 402.246 819.821 427.775C838.952 448.199 862.845 458.322 892.008 458.36C907.349 458.38 909.91 458.068 921.635 454.742C923.494 454.215 923.238 455.064 918.715 464.433C912.965 476.34 914.171 475.651 897.435 476.6C830.049 480.425 772.821 423.492 775.67 355.462C776.414 337.708 775.698 339.094 786.956 333.62C798.103 328.2 798.265 328.157 797.405 330.846ZM1157.95 329.194C1157.95 329.403 1157.05 333.163 1155.95 337.549C1144.58 382.862 1171.67 434.951 1215.35 451.772C1234.23 459.044 1258.1 460.867 1275.84 456.392C1280.23 455.284 1283.9 454.377 1284 454.377C1284.09 454.377 1281.92 459.005 1279.18 464.662L1274.18 474.946L1265.17 476.079C1193.77 485.046 1128.86 421.426 1136.23 349.706C1136.83 343.929 1137.47 339.044 1137.65 338.85C1139.02 337.456 1157.95 328.447 1157.95 329.194ZM166.983 333.405C150.001 335.576 139.325 355.069 146.492 370.818C158.669 397.575 197.727 389.315 197.751 359.978C197.764 342.356 184.769 331.132 166.983 333.405ZM527.342 333.395C501.792 337.413 496.374 372.32 519.51 383.864C530.211 389.205 543.214 387.137 551.17 378.831C569.149 360.056 553.047 329.354 527.342 333.395ZM887.918 333.405C855.487 337.55 859.329 386.576 892.089 386.618C908.298 386.638 918.672 376.247 918.686 359.978C918.699 342.356 905.704 331.132 887.918 333.405ZM1248.28 333.395C1222.73 337.413 1217.31 372.32 1240.44 383.864C1251.15 389.205 1264.15 387.137 1272.1 378.831C1290.08 360.056 1273.98 329.354 1248.28 333.395ZM36.5437 362.914C38.6296 437.61 96.1868 494.3 170.168 494.526L185.998 494.575L184.212 503.357L182.428 512.14L178.496 512.728C167.883 514.318 140.523 510.621 124.488 505.43C60.331 484.665 15.6827 421.966 18.3602 356.399L18.6542 349.207L26.7953 347.244C31.2728 346.165 35.186 345.234 35.4908 345.177C35.7957 345.12 36.2696 353.101 36.5437 362.914ZM396.794 360.204C396.966 436.706 459.23 497.149 535.546 494.898C546.165 494.586 546.533 494.637 546.131 496.382C545.901 497.375 545.032 501.319 544.199 505.146L542.685 512.103L538.632 512.71C527.544 514.371 500.727 510.58 483.883 504.971C422.624 484.571 380.983 428.956 379.332 365.331L378.908 349.005L387.382 347.157C392.042 346.142 396.06 345.258 396.308 345.193C396.557 345.128 396.776 351.883 396.794 360.204ZM757.479 362.914C759.562 437.523 816.9 494.141 890.733 494.496L907.098 494.575L905.973 498.842C905.354 501.189 904.569 505.132 904.228 507.606L903.609 512.103L899.392 512.743C888.706 514.363 860.856 510.466 844.066 504.999C781.213 484.537 736.644 421.322 739.295 356.399L739.589 349.207L747.73 347.244C752.208 346.165 756.121 345.234 756.426 345.177C756.73 345.12 757.204 353.101 757.479 362.914ZM1117.73 360.204C1117.9 436.706 1180.16 497.149 1256.48 494.898C1267.1 494.586 1267.47 494.637 1267.07 496.382C1266.84 497.375 1265.97 501.319 1265.13 505.146L1263.62 512.103L1259.57 512.71C1257.34 513.044 1250.96 513.027 1245.4 512.673C1164.52 507.523 1102.62 444.668 1100.32 365.331L1099.84 349.005L1108.32 347.157C1112.98 346.142 1116.99 345.258 1117.24 345.193C1117.49 345.128 1117.71 351.883 1117.73 360.204ZM721.046 359.978V369.012H712H702.954V359.978V350.945H712H721.046V359.978ZM177.128 353.576C179.235 355.387 179.666 356.473 179.666 359.978C179.666 368.018 170.794 371.688 165.272 365.932C157.627 357.964 168.746 346.377 177.128 353.576ZM360.126 359.978V368.56H351.533H342.939V359.978V351.397H351.533H360.126V359.978ZM537.596 353.824C543.085 359.075 539.402 368.56 531.874 368.56C526.593 368.56 523.399 365.326 523.399 359.978C523.399 352.091 531.924 348.397 537.596 353.824ZM898.063 353.576C900.17 355.387 900.601 356.473 900.601 359.978C900.601 368.018 891.729 371.688 886.207 365.932C878.562 357.964 889.681 346.377 898.063 353.576ZM1081.06 359.978V368.56H1072.47H1063.87V359.978V351.397H1072.47H1081.06V359.978ZM1258.53 353.824C1264.02 359.075 1260.34 368.56 1252.81 368.56C1247.53 368.56 1244.33 365.326 1244.33 359.978C1244.33 352.091 1252.86 348.397 1258.53 353.824ZM364.153 395.377C364.995 399.614 365.863 403.545 366.081 404.112C366.368 404.86 362.303 405.154 351.316 405.178C274.696 405.35 214.328 467.318 216.445 543.623C216.742 554.345 216.69 554.717 214.944 554.313C213.949 554.083 210 553.215 206.168 552.383L199.201 550.872L198.593 546.824C196.276 531.398 202.514 498.885 211.86 477.677C236.526 421.701 296.838 384.18 357.01 387.376L362.621 387.675L364.153 395.377ZM722.712 388.022C723.065 388.338 726.415 402.871 726.449 404.242C726.464 404.806 720.954 405.163 711.774 405.193C636.212 405.439 577.226 464.494 577.153 539.967C577.145 548.041 576.91 554.647 576.632 554.647C576.353 554.647 573.827 554.077 571.019 553.381C568.211 552.685 564.329 551.843 562.392 551.509L558.871 550.903L559.382 535.386C561.737 463.737 611.475 404.702 681.697 390.207C693.895 387.689 720.734 386.259 722.712 388.022ZM1085.09 395.377C1085.93 399.614 1086.8 403.545 1087.02 404.112C1087.3 404.86 1083.24 405.154 1072.25 405.178C995.631 405.35 935.263 467.318 937.38 543.623C937.677 554.345 937.625 554.717 935.879 554.313C934.884 554.083 930.934 553.215 927.103 552.383L920.136 550.872L919.528 546.824C917.211 531.398 923.449 498.885 932.795 477.677C957.453 421.721 1017.85 384.158 1077.99 387.376L1083.56 387.675L1085.09 395.377ZM363.69 423.788L372.745 424.817L377.689 434.832C383.558 446.724 383.938 445.832 374.056 443.361C328.59 431.993 276.478 458.999 259.614 502.669C252.332 521.526 250.507 545.359 254.988 563.074C256.098 567.46 257.006 571.142 257.006 571.255C257.006 571.369 252.438 569.169 246.855 566.367C234.68 560.255 235.036 561.024 234.937 540.645C234.6 470.815 295.007 415.989 363.69 423.788ZM729.637 424.419C733.197 425.038 733.336 425.212 738.364 435.284C742.915 444.398 743.263 445.471 741.532 445.081C740.464 444.841 736.536 443.921 732.805 443.039C662.748 426.465 598.119 493.515 615.838 564.39C617.68 571.757 617.961 571.702 606.729 566.176C595.04 560.426 595.745 562.163 595.828 539.29C596.088 467.742 660.543 412.41 729.637 424.419ZM1084.62 423.788L1093.68 424.817L1098.62 434.832C1104.49 446.724 1104.87 445.832 1094.99 443.361C1049.53 431.993 997.412 458.999 980.549 502.669C973.267 521.526 971.442 545.359 975.923 563.074C977.033 567.46 977.941 571.142 977.941 571.255C977.941 571.369 973.373 569.169 967.79 566.367C955.614 560.255 955.971 561.024 955.872 540.645C955.535 470.815 1015.94 415.989 1084.62 423.788ZM369.012 461.116C429.59 473.861 453.032 549.477 410.504 594.954C359.17 649.848 266.742 610.599 270.886 535.668C273.101 495.645 301.53 465.76 343.392 459.452C348.056 458.749 362.093 459.66 369.012 461.116ZM722.563 459.863C772.277 466.681 804.703 517.948 788.922 564.781C763.877 639.113 660.268 638.98 635.022 564.583C616.381 509.653 664.642 451.92 722.563 459.863ZM1089.95 461.116C1150.59 473.873 1174.08 550.093 1131.27 595.181C1079.52 649.682 987.683 610.488 991.821 535.668C994.036 495.645 1022.47 465.76 1064.33 459.452C1068.99 458.749 1083.03 459.66 1089.95 461.116ZM-8.93487 485.817V494.674L-2.27007 495.793C27.8997 500.855 44.5482 532.69 31.2367 559.862C25.1363 572.313 9.86371 583.197 -2.9503 584.224L-8.93487 584.704V594.13V603.557L-3.73365 602.956C47.336 597.055 71.6823 540.577 40.3782 500.624C29.7568 487.067 10.2599 476.96 -5.26869 476.96H-8.93487V485.817ZM337.512 478.361C298.435 486.719 277.203 531.345 294.985 567.745C317.873 614.596 385.184 614.596 408.082 567.745C431.257 520.326 389.369 467.271 337.512 478.361ZM697.046 478.656C649.442 490.352 632.67 549.574 667.211 584.005C707.404 624.07 774.85 596.606 774.808 540.193C774.777 498.803 736.933 468.855 697.046 478.656ZM1058.45 478.361C1019.37 486.719 998.138 531.345 1015.92 567.745C1038.81 614.595 1106.13 614.595 1129.02 567.745C1152.21 520.258 1110.37 467.256 1058.45 478.361ZM1417.98 478.656C1348.96 495.614 1356.74 594.754 1427.73 602.956L1432.93 603.557V594.13V584.704L1426.95 584.224C1414.14 583.197 1398.86 572.313 1392.76 559.862C1379.43 532.646 1396.44 500.347 1426.56 495.692L1432.93 494.706V485.833V476.96L1428.64 477.027C1426.28 477.063 1421.48 477.796 1417.98 478.656ZM361.726 496.389C393.532 503.878 406.911 542.434 386.521 567.848C368.698 590.065 334.367 590.065 316.544 567.848C290.235 535.055 320.779 486.748 361.726 496.389ZM720.244 495.944C762.567 503.909 769.972 560.981 731.173 580.18L723.444 584.005H712H700.556L692.827 580.18C646.295 557.154 669.336 486.362 720.244 495.944ZM1082.66 496.389C1114.47 503.878 1127.85 542.434 1107.46 567.848C1089.63 590.065 1055.3 590.065 1037.48 567.848C1011.17 535.055 1041.71 486.748 1082.66 496.389ZM457.024 513.828C468.111 519.268 467.382 517.889 468.349 535.225C472.083 602.116 414.901 659.208 347.01 656.373C329.18 655.628 330.633 656.396 325.044 644.755C319.419 633.035 319.236 633.789 327.122 636.181C335.913 638.845 365.515 639.068 374.547 636.537C421.847 623.282 449.986 587.373 450.048 540.193C450.068 524.833 449.771 522.412 446.395 510.488C446.058 509.301 446.151 508.51 446.6 508.725C447.049 508.939 451.74 511.235 457.024 513.828ZM816.72 513.56C828.615 519.502 827.911 518.147 828.452 536.128C830.159 592.849 794.189 639.798 738.287 653.816C728.165 656.355 697.24 657.352 692.369 655.297C689.761 654.198 679.487 633.755 681.919 634.504C697.004 639.149 722.514 639.902 736.403 636.113C790.281 621.415 821.623 568.46 808.045 515.069C807.138 511.498 806.473 508.577 806.569 508.577C806.665 508.577 811.233 510.82 816.72 513.56ZM1177.96 513.828C1189.05 519.268 1188.32 517.889 1189.28 535.225C1193.02 602.116 1135.84 659.208 1067.94 656.373C1050.11 655.628 1051.57 656.396 1045.98 644.755C1040.35 633.035 1040.17 633.789 1048.06 636.181C1056.85 638.845 1086.45 639.068 1095.48 636.537C1142.78 623.282 1170.92 587.373 1170.98 540.193C1171 524.833 1170.71 522.412 1167.33 510.488C1166.99 509.301 1167.09 508.51 1167.54 508.725C1167.98 508.939 1172.67 511.235 1177.96 513.828ZM-8.93487 522.127C-8.93487 529.805 -8.71778 531.16 -7.48757 531.16C0.68694 531.16 1.83211 546.398 -6.22209 548.007L-8.93487 548.549V558.037V567.525L-5.12848 566.917C11.7651 564.218 21.9125 547.506 16.6552 531.038C13.7361 521.896 2.43546 513.093 -6.3822 513.093H-8.93487V522.127ZM342.671 514.342C314.193 524.936 321.266 566.793 351.533 566.793C386.18 566.793 387.597 514.93 352.993 513.374C348.557 513.175 344.882 513.519 342.671 514.342ZM702.054 514.669C696.109 516.764 688.388 524.842 686.41 531.038C677.685 558.37 710.844 579.288 730.996 559.163C751.55 538.637 729.639 504.949 702.054 514.669ZM1063.61 514.342C1035.13 524.936 1042.2 566.793 1072.47 566.793C1107.11 566.793 1108.53 514.93 1073.93 513.374C1069.49 513.175 1065.82 513.519 1063.61 514.342ZM1422.99 514.669C1397.57 523.627 1402.15 562.608 1429.13 566.917L1432.93 567.525V558.037V548.549L1430.22 548.007C1422.17 546.398 1423.31 531.16 1431.49 531.16C1432.72 531.16 1432.93 529.805 1432.93 522.127V513.093L1430 513.165C1428.38 513.204 1425.23 513.881 1422.99 514.669ZM504.523 532.943C505.366 538.482 503.445 561.353 501.298 571.358C485.953 642.839 419.776 695.358 348.413 692.69L340.771 692.405L338.73 683.823C337.608 679.103 336.671 675.038 336.647 674.79C336.624 674.542 342.202 674.464 349.043 674.617C424.844 676.318 486.032 616.781 486.263 541.097L486.312 525.288L495.106 527.071L503.901 528.854L504.523 532.943ZM864.307 544.358C863.714 626.065 794.802 692.778 710.923 692.849C700.259 692.858 701.367 694.141 697.959 677.844L697.371 675.028L714.861 674.524C790.376 672.353 846.81 614.688 846.827 539.683L846.83 525.172L855.624 527.137L864.419 529.1L864.307 544.358ZM1225.46 532.943C1226.3 538.482 1224.38 561.353 1222.23 571.358C1206.89 642.839 1140.71 695.358 1069.35 692.69L1061.71 692.405L1059.67 683.823C1058.54 679.103 1057.61 675.038 1057.58 674.79C1057.56 674.542 1063.14 674.464 1069.98 674.617C1146.85 676.342 1209.57 613.667 1207.56 537.154L1207.25 525.288L1216.04 527.071L1224.84 528.854L1225.46 532.943ZM180.118 540.135V549.109H171.073H162.027V540.135V531.16H171.073H180.118V540.135ZM358.091 534.341C362.91 539.881 358.951 548.323 351.533 548.323C344.557 548.323 340.427 540.563 344.393 534.91C347.47 530.522 354.513 530.23 358.091 534.341ZM541.038 540.151V549.141L531.992 549.109L522.947 549.077V540.118V531.16H531.992H541.038V540.151ZM717.97 534.231C725.168 541.419 716.498 552.241 707.427 547.393C700.177 543.518 703.657 531.16 712 531.16C714.086 531.16 715.754 532.018 717.97 534.231ZM901.053 540.135V549.109H892.008H882.962V540.135V531.16H892.008H901.053V540.135ZM1079.03 534.341C1083.85 539.881 1079.89 548.323 1072.47 548.323C1065.49 548.323 1061.36 540.563 1065.33 534.91C1068.41 530.522 1075.45 530.23 1079.03 534.341ZM1261.97 540.151V549.141L1252.93 549.109L1243.88 549.077V540.118V531.16H1252.93H1261.97V540.151ZM201.375 570.021C271.712 584.739 321.688 643.85 323.71 714.717L324.166 730.706L322.019 731.202C311.961 733.527 307.983 734.386 307.209 734.396C306.645 734.405 306.286 728.892 306.257 719.731C306.01 644.294 246.911 585.406 171.299 585.253C163.215 585.237 156.6 585.009 156.6 584.745C156.6 584.481 157.171 581.972 157.867 579.167C158.564 576.363 159.408 572.484 159.742 570.547L160.35 567.026L176.34 567.577C187.191 567.951 195.237 568.737 201.375 570.021ZM561.391 570.007C634.383 585.355 684.795 647.181 684.856 721.426L684.863 730.573L676.496 732.498C671.895 733.556 667.876 734.42 667.567 734.416C667.259 734.413 666.781 726.584 666.505 717.021C664.334 641.602 606.673 585.33 531.489 585.259L516.965 585.245L518.986 576.495C520.097 571.683 521.036 567.584 521.073 567.388C521.284 566.232 553.34 568.314 561.391 570.007ZM922.31 570.021C992.647 584.739 1042.62 643.85 1044.64 714.717L1045.1 730.706L1042.95 731.202C1032.9 733.527 1028.92 734.386 1028.14 734.396C1027.58 734.405 1027.22 728.892 1027.19 719.731C1026.94 644.294 967.846 585.406 892.234 585.253C884.15 585.237 877.535 585.009 877.535 584.745C877.535 584.481 878.105 581.972 878.802 579.167C879.499 576.363 880.343 572.484 880.677 570.547L881.285 567.026L897.275 567.577C908.126 567.951 916.172 568.737 922.31 570.021ZM1282.33 570.007C1355.32 585.355 1405.73 647.181 1405.79 721.426L1405.8 730.573L1397.43 732.498C1392.83 733.556 1388.81 734.42 1388.5 734.416C1388.19 734.413 1387.72 726.584 1387.44 717.021C1385.27 641.602 1327.61 585.33 1252.42 585.259L1237.9 585.245L1239.92 576.495C1241.03 571.683 1241.97 567.584 1242.01 567.388C1242.22 566.232 1274.27 568.314 1282.33 570.007ZM200.471 606.923C257.636 621.753 297.9 682.229 287.152 737.12L286.356 741.185L276.117 746.287C266.998 750.83 265.924 751.177 266.314 749.449C266.555 748.382 267.475 744.46 268.359 740.733C284.955 670.771 217.814 606.231 146.843 623.925C143.716 624.705 140.956 625.142 140.71 624.897C140.337 624.523 148.822 606.49 149.936 605.292C152.767 602.246 186.66 603.341 200.471 606.923ZM551.548 604.823C597.896 612.878 634.011 646.918 645.746 693.609C648.311 703.811 649.322 734.668 647.253 739.561C646.152 742.165 625.681 752.425 626.431 749.997C631.083 734.932 631.837 709.457 628.042 695.586C613.32 641.765 560.314 610.478 506.834 624.042C503.258 624.948 500.333 625.612 500.333 625.516C500.333 625.42 502.599 620.819 505.368 615.29C510.507 605.028 510.553 604.982 516.615 604.028C522.781 603.058 544.199 603.546 551.548 604.823ZM921.406 606.923C976.504 621.216 1014.54 674.857 1008.75 730.119C1007.5 742.072 1008.6 740.602 996.502 746.576C987.853 750.847 986.863 751.152 987.251 749.433C987.491 748.375 988.41 744.46 989.294 740.733C1005.89 670.771 938.749 606.231 867.778 623.925C864.651 624.705 861.891 625.142 861.645 624.897C861.272 624.523 869.757 606.49 870.871 605.292C873.702 602.246 907.595 603.341 921.406 606.923ZM1272.48 604.823C1318.75 612.866 1354.97 646.995 1366.68 693.609C1369.25 703.811 1370.26 734.668 1368.19 739.561C1367.09 742.165 1346.62 752.425 1347.37 749.997C1352.02 734.932 1352.77 709.457 1348.98 695.586C1334.25 641.765 1281.25 610.478 1227.77 624.042C1224.19 624.948 1221.27 625.612 1221.27 625.516C1221.27 625.42 1223.53 620.819 1226.3 615.29C1231.44 605.028 1231.49 604.982 1237.55 604.028C1243.72 603.058 1265.13 603.546 1272.48 604.823ZM189.759 641.447C242.386 652.993 268.839 715.622 240.508 761.597C198.617 829.574 94.2457 803.013 90.8264 723.504C88.5044 669.494 136.426 629.746 189.759 641.447ZM548.29 640.903C610.414 653.357 634.079 731.911 589.201 776.706C546.759 819.068 473.99 802.299 455.242 745.836C435.548 686.524 486.912 628.6 548.29 640.903ZM910.694 641.447C970.717 654.616 993.469 730.24 950.95 775.252C901.985 827.086 814.822 794.679 811.761 723.504C809.439 669.494 857.361 629.746 910.694 641.447ZM1269.22 640.903C1339.18 654.928 1356.75 748.251 1296.82 787.521C1253 816.237 1192.63 795.376 1176.18 745.836C1156.48 686.524 1207.85 628.6 1269.22 640.903ZM160.286 657.646C109.111 668.436 90.6618 728.127 127.202 764.685C166.54 804.043 234.392 775.729 234.392 719.957C234.392 681.33 197.014 649.901 160.286 657.646ZM518.931 658.154C472.091 668.628 452.66 724.397 483.311 760.382C519.264 802.59 587.077 782.378 594.508 727.239C600.104 685.711 559.929 648.986 518.931 658.154ZM881.221 657.646C830.046 668.436 811.597 728.127 848.136 764.685C887.475 804.043 955.327 775.729 955.327 719.957C955.327 681.33 917.949 649.901 881.221 657.646ZM1239.87 658.154C1193.03 668.628 1173.59 724.397 1204.25 760.382C1240.2 802.59 1308.01 782.378 1315.44 727.239C1321.04 685.711 1280.86 648.986 1239.87 658.154ZM178.309 675.719C202.03 679.413 219.506 703.24 215.557 726.506C208.142 770.21 150.714 778.769 131.031 739.104L127.202 731.385V719.957V708.529L131.031 700.81C140.139 682.456 158.612 672.652 178.309 675.719ZM540.57 676.158C554.59 679.123 565.524 687.69 572.034 700.81L575.864 708.529V719.957V731.385L572.034 739.104C552.351 778.769 494.924 770.21 487.508 726.506C482.435 696.617 510.665 669.832 540.57 676.158ZM899.244 675.719C922.965 679.413 940.44 703.24 936.492 726.506C929.076 770.21 871.649 778.769 851.966 739.104L848.136 731.385V719.957V708.529L851.966 700.81C861.073 682.456 879.547 672.652 899.244 675.719ZM1266.49 677.43C1291.95 685.343 1304.78 715.292 1292.94 739.16C1279.01 767.229 1243 773.393 1221.02 751.468C1188.12 718.644 1221.94 663.582 1266.49 677.43ZM75.0988 695.591C55.9791 767.36 123.43 834.335 196.231 815.872C199.807 814.966 202.732 814.302 202.732 814.397C202.732 815.949 192.311 834.684 191.184 835.157C187.545 836.687 160.818 836.711 152.077 835.192C94.6527 825.217 54.8077 777.765 54.9334 719.505C54.9796 698.195 54.4115 699.464 66.6005 693.465C78.3896 687.663 77.2851 687.387 75.0988 695.591ZM435.766 694.829C417.363 768.315 482.967 834.373 556.125 816.022C563.618 814.142 563.561 813.865 558.018 825.101C552.262 836.768 554.032 836.054 531.088 835.971C473.363 835.762 427.825 797.673 416.546 740.168C414.841 731.474 414.477 710.134 415.91 702.793L416.703 698.728L426.632 693.726C438.349 687.823 437.545 687.726 435.766 694.829ZM796.034 695.591C776.914 767.36 844.364 834.335 917.166 815.872C920.742 814.966 923.667 814.302 923.667 814.397C923.667 815.949 913.246 834.684 912.119 835.157C908.48 836.687 881.753 836.711 873.012 835.192C815.588 825.217 775.743 777.765 775.868 719.505C775.914 698.195 775.346 699.464 787.535 693.465C799.324 687.663 798.22 687.387 796.034 695.591ZM1156.7 694.829C1138.29 768.366 1203.81 834.274 1277.16 815.988C1284.54 814.147 1284.49 813.881 1278.95 825.101C1273.2 836.768 1274.97 836.054 1252.02 835.971C1183.17 835.722 1129.16 776.896 1136.18 709.794C1137.43 697.869 1136.4 699.272 1148.14 693.413C1159.22 687.88 1158.47 687.756 1156.7 694.829ZM161.21 694.825C155.337 697.078 149.043 703.05 146.505 708.782C134.414 736.078 168.988 760.002 190.135 738.973C210.928 718.296 188.654 684.3 161.21 694.825ZM522.495 694.453C512.516 697.73 504.856 708.806 504.856 719.957C504.856 745.243 537.213 756.702 552.846 736.95C569.844 715.476 548.687 685.852 522.495 694.453ZM882.145 694.825C876.272 697.078 869.978 703.05 867.44 708.782C855.348 736.078 889.923 760.002 911.07 738.973C931.862 718.296 909.589 684.3 882.145 694.825ZM1243.43 694.453C1233.45 697.73 1225.79 708.806 1225.79 719.957C1225.79 745.243 1258.15 756.702 1273.78 736.95C1290.78 715.476 1269.62 685.852 1243.43 694.453ZM36.56 722.892C38.731 798.311 96.3922 854.583 171.577 854.654L186.1 854.668L184.14 863.419L182.181 872.168L166.903 872.057C86.4339 871.475 21.5669 806.51 18.4643 723.395L17.9351 709.218L20.1042 708.772C21.2964 708.526 24.7148 707.73 27.6998 707.004C36.854 704.775 35.9938 703.233 36.56 722.892ZM396.809 720.182C397.055 795.619 456.154 854.507 531.766 854.66C539.851 854.676 546.463 854.963 546.46 855.299C546.457 855.634 546.08 857.331 545.622 859.07C545.164 860.809 544.311 864.626 543.727 867.554L542.665 872.877L527.153 872.368C445.514 869.69 381.663 806.109 379.355 725.196L378.899 709.207L381.046 708.716C382.226 708.446 385.634 707.658 388.62 706.964C391.605 706.271 394.657 705.659 395.404 705.604C396.556 705.519 396.768 707.712 396.809 720.182ZM757.495 722.892C759.666 798.311 817.327 854.583 892.511 854.654L907.035 854.668L905.075 863.419L903.116 872.168L887.838 872.057C805.794 871.463 739.213 802.693 739.144 718.477L739.137 709.32L746.599 707.517C750.704 706.526 754.722 705.667 755.528 705.609C756.816 705.516 757.054 707.608 757.495 722.892ZM1117.74 720.182C1117.99 795.619 1177.09 854.507 1252.7 854.66C1260.79 854.676 1267.4 854.963 1267.39 855.299C1267.39 855.634 1267.01 857.331 1266.56 859.07C1266.1 860.809 1265.25 864.626 1264.66 867.554L1263.6 872.877L1248.09 872.368C1166.45 869.69 1102.6 806.109 1100.29 725.196L1099.83 709.207L1101.98 708.716C1103.16 708.446 1106.57 707.658 1109.55 706.964C1112.54 706.271 1115.59 705.659 1116.34 705.604C1117.49 705.519 1117.7 707.712 1117.74 720.182ZM177.631 714.548C180.781 718.003 180.851 721.659 177.833 725.241C172.305 731.801 162.932 728.357 162.932 719.765C162.932 711.529 171.955 708.327 177.631 714.548ZM360.578 719.957V728.99H351.533H342.487V719.957V710.923H351.533H360.578V719.957ZM535.629 712.287C543.528 716.367 540.809 728.498 531.996 728.498C523.816 728.498 520.227 719.782 526.022 713.995C529.403 710.619 531.632 710.223 535.629 712.287ZM721.046 719.957V728.99H712H702.954V719.957V710.923H712H721.046V719.957ZM898.566 714.548C902.073 718.393 901.885 722.016 897.978 725.919C892.166 731.723 883.867 728.103 883.867 719.765C883.867 711.529 892.89 708.327 898.566 714.548ZM1081.51 719.957V728.99H1072.47H1063.42V719.957V710.923H1072.47H1081.51V719.957ZM1256.56 712.287C1264.46 716.367 1261.74 728.498 1252.93 728.498C1244.75 728.498 1241.16 719.782 1246.96 713.995C1250.34 710.619 1252.57 710.223 1256.56 712.287ZM363.771 753.832C364.568 757.309 365.492 761.217 365.825 762.515L366.431 764.877L348.579 765.374C272.776 767.486 214.475 828.101 216.441 902.759L216.753 914.625L207.959 912.842L199.164 911.06L198.542 906.97C197.699 901.432 199.62 878.56 201.767 868.555C216.972 797.728 280.589 746.394 351.953 747.367L362.324 747.508L363.771 753.832ZM722.572 748.186C723.218 749.188 724.011 752.362 726.041 762.069L726.629 764.886L709.139 765.389C633.625 767.561 577.18 825.228 577.156 900.228L577.152 914.738L568.367 912.775L559.582 910.813L559.693 895.556C560.236 820.846 618.933 756.777 694.813 748.069C705.822 746.806 721.725 746.873 722.572 748.186ZM1084.71 753.832C1085.5 757.309 1086.43 761.217 1086.76 762.515L1087.37 764.877L1069.51 765.374C994.718 767.458 937.963 824.929 937.737 898.817L937.688 914.625L928.894 912.842L920.099 911.06L919.477 906.97C918.634 901.432 920.555 878.56 922.702 868.555C937.907 797.728 1001.52 746.394 1072.89 747.367L1083.26 747.508L1084.71 753.832ZM370.981 784.625C372.978 785.137 383.631 804.281 382.53 805.38C382.383 805.528 379.418 804.787 375.943 803.733C366.043 800.732 337.512 800.826 326.657 803.896C290.726 814.059 264.939 839.833 255.438 875.08C252.138 887.326 251.93 912.32 255.037 923.581C257.459 932.365 258.385 932.069 246.604 926.274C235.066 920.599 235.695 921.722 234.752 905.14C231.465 847.388 274.866 793.98 332.762 784.534C340.63 783.25 365.846 783.31 370.981 784.625ZM731.631 784.699C734.221 785.683 744.561 806.173 742.081 805.409C726.996 800.764 701.486 800.011 687.597 803.8C633.719 818.499 602.377 871.453 615.955 924.844C616.862 928.415 617.527 931.337 617.431 931.337C615.877 931.337 597.117 920.929 596.643 919.804C595.111 916.17 595.087 889.479 596.608 880.75C605.389 830.336 645.608 791.28 696.17 784.066C702.604 783.147 728.775 783.615 731.631 784.699ZM1091.92 784.625C1093.91 785.137 1104.57 804.281 1103.46 805.38C1103.32 805.528 1100.35 804.787 1096.88 803.733C1088.09 801.068 1058.48 800.846 1049.45 803.377C1011.84 813.918 986.034 839.222 976.387 875.026C973.072 887.328 972.858 912.294 975.972 923.581C978.394 932.365 979.319 932.069 967.538 926.274C956.001 920.599 956.63 921.722 955.687 905.14C952.4 847.388 995.801 793.98 1053.7 784.534C1061.56 783.25 1086.78 783.31 1091.92 784.625ZM365.161 820.273C437.333 833.039 456.859 927.279 395.666 967.501C343.916 1001.52 274.316 966.233 270.886 904.246C268.043 852.841 314.639 811.336 365.161 820.273ZM733.5 822.001C794.429 840.104 813.122 915.481 767.371 958.582C716.059 1006.92 631.409 970.596 631.51 900.282C631.568 859.696 658.471 827.814 699.336 819.9C705.312 818.742 727.029 820.079 733.5 822.001ZM1086.1 820.273C1158.28 833.04 1177.8 927.273 1116.6 967.501C1064.85 1001.52 995.25 966.233 991.821 904.246C988.978 852.841 1035.57 811.336 1086.1 820.273ZM-8.93487 845.783V855.209L-2.9503 855.689C9.86371 856.716 25.1363 867.6 31.2367 880.052C44.5482 907.223 27.8997 939.058 -2.27007 944.121L-8.93487 945.239V954.096V962.953H-5.26869C10.2599 962.953 29.7568 952.846 40.3782 939.29C71.6823 899.336 47.336 842.858 -3.73365 836.957L-8.93487 836.357V845.783ZM342.385 837.333C281.67 846.956 268.546 929.191 323.411 956.231C377.391 982.836 434.472 926.165 408.082 872.168C396.261 847.982 368.4 833.209 342.385 837.333ZM702.734 837.412C654.686 844.952 632.665 900.973 662.687 939.29C690.949 975.361 749.193 968.848 768.909 927.412C790.521 881.991 752.052 829.672 702.734 837.412ZM1063.32 837.333C1002.6 846.956 989.481 929.191 1044.35 956.231C1098.38 982.862 1155.42 926.226 1129.02 872.168C1117.2 847.985 1089.34 833.209 1063.32 837.333ZM1423.67 837.467C1382 843.562 1357.83 889.181 1376.03 927.412C1385.5 947.32 1408.92 962.953 1429.27 962.953H1432.93V954.096V945.239L1426.27 944.121C1396.1 939.058 1379.45 907.223 1392.76 880.052C1398.86 867.6 1414.14 856.716 1426.95 855.689L1432.93 855.209V845.848C1432.93 835.188 1433.81 835.983 1423.67 837.467ZM364.954 857.284C397.19 867.227 406.905 908.565 382.505 931.964C352.713 960.532 304.349 937.855 306.996 896.558C308.81 868.236 337.479 848.809 364.954 857.284ZM731.177 859.735C770.892 879.389 762.32 936.739 718.558 944.144C689.056 949.138 662.026 921.227 668.005 891.945C673.982 862.678 705.08 846.821 731.177 859.735ZM1085.89 857.284C1118.13 867.227 1127.84 908.565 1103.44 931.964C1073.65 960.532 1025.28 937.855 1027.93 896.558C1029.75 868.236 1058.41 848.809 1085.89 857.284ZM467.212 882.18C468.51 887.584 468.358 911.899 466.978 919.593C456.245 979.417 400.429 1022.33 341.246 1016.26C335.461 1015.66 330.578 1015.03 330.394 1014.85C329.687 1014.17 320.44 995.058 320.692 994.806C320.839 994.659 324.581 995.445 329.009 996.553C374.475 1007.92 426.588 980.914 443.451 937.244C450.733 918.387 452.558 894.554 448.077 876.839C446.967 872.453 446.059 868.771 446.059 868.658C446.059 868.544 450.627 870.745 456.21 873.547C465.943 878.432 466.397 878.788 467.212 882.18ZM1188.15 882.18C1189.45 887.584 1189.29 911.899 1187.91 919.593C1177.18 979.417 1121.36 1022.33 1062.18 1016.26C1056.4 1015.66 1051.51 1015.03 1051.33 1014.85C1050.62 1014.17 1041.37 995.058 1041.63 994.806C1041.77 994.659 1045.52 995.445 1049.94 996.553C1095.41 1007.92 1147.52 980.914 1164.39 937.244C1171.67 918.387 1173.49 894.554 1169.01 876.839C1167.9 872.453 1166.99 868.771 1166.99 868.658C1166.99 868.544 1171.56 870.745 1177.15 873.547C1186.88 878.432 1187.33 878.788 1188.15 882.18ZM817.747 873.947C828.896 879.389 828.255 877.749 828.172 900.623C827.963 958.131 789.471 1004.09 732.353 1015.02C723.574 1016.7 702.235 1017.05 694.813 1015.63L690.743 1014.85L685.634 1004.62C681.085 995.515 680.737 994.443 682.468 994.832C683.536 995.072 687.464 995.992 691.195 996.874C758.568 1012.81 824.571 947.944 809.352 880.75C806.705 869.065 806.658 868.747 807.627 869.111C808.134 869.302 812.688 871.478 817.747 873.947ZM-8.93487 881.876V891.364L-6.22209 891.906C1.83211 893.515 0.68694 908.753 -7.48757 908.753C-8.71778 908.753 -8.93487 910.108 -8.93487 917.787V926.82H-6.3822C2.43546 926.82 13.7361 918.017 16.6552 908.875C21.9125 892.407 11.7651 875.695 -5.12848 872.997L-8.93487 872.389V881.876ZM344.296 873.83C314.085 883.824 319.944 926.368 351.533 926.368C386.318 926.368 387.713 875.364 352.992 872.981C350.199 872.789 346.286 873.171 344.296 873.83ZM703.399 874.188C684.085 881.093 678.641 904.359 692.968 918.757C713.493 939.381 747.482 917.545 737.273 890.296C732.295 877.009 716.507 869.502 703.399 874.188ZM1065.23 873.83C1035.02 883.824 1040.88 926.368 1072.47 926.368C1107.25 926.368 1108.65 875.364 1073.93 872.981C1071.13 872.789 1067.22 873.171 1065.23 873.83ZM1424.33 874.243C1409.91 879.224 1402.62 894.08 1407.34 908.875C1410.26 918.017 1421.56 926.82 1430.38 926.82H1432.93V917.787C1432.93 910.108 1432.72 908.753 1431.49 908.753C1423.31 908.753 1422.17 893.515 1430.22 891.906L1432.93 891.364V881.992C1432.93 871.232 1432.97 871.262 1424.33 874.243ZM496.897 887.53L503.864 889.042L504.472 893.089C505.321 898.735 504.123 915.48 502.041 927.1C488.748 1001.29 420.515 1056.15 345.995 1052.57L340.457 1052.3L338.919 1044.57C338.073 1040.31 337.202 1036.37 336.984 1035.8C336.697 1035.05 340.762 1034.76 351.749 1034.73C426.929 1034.57 485.905 976.037 486.24 901.262C486.31 885.671 486.366 885.202 488.121 885.604C489.116 885.832 493.066 886.698 496.897 887.53ZM852.981 886.532C855.789 887.229 859.671 888.071 861.608 888.404L865.129 889.01L864.618 904.528C862.125 980.342 807.391 1040.79 731.5 1051.54C725.139 1052.44 702.187 1052.82 701.405 1052.04C700.965 1051.6 697.591 1037.27 697.551 1035.67C697.536 1035.11 703.046 1034.75 712.226 1034.72C787.788 1034.47 846.774 975.419 846.847 899.946C846.855 891.873 847.09 885.267 847.368 885.267C847.647 885.267 850.173 885.837 852.981 886.532ZM1217.83 887.53L1224.8 889.042L1225.41 893.089C1226.26 898.735 1225.06 915.48 1222.98 927.1C1209.69 1001.26 1141.43 1056.15 1066.93 1052.57L1061.39 1052.3L1059.85 1044.57C1059.01 1040.31 1058.14 1036.37 1057.92 1035.8C1057.63 1035.05 1061.7 1034.76 1072.68 1034.73C1149.3 1034.56 1209.67 972.596 1207.56 896.29C1207.26 885.568 1207.31 885.196 1209.06 885.6C1210.05 885.83 1214 886.698 1217.83 887.53ZM180.118 899.779V908.753H171.073H162.027V899.779V890.804H171.073H180.118V899.779ZM541.038 899.754V908.753H531.992H522.947V899.764V890.776L531.992 890.765L541.038 890.754V899.754ZM901.053 899.764V908.753H892.008H882.962V899.754V890.754L892.008 890.765L901.053 890.776V899.764ZM1261.97 899.754V908.753H1252.93H1243.88V899.764V890.776L1252.93 890.765L1261.97 890.754V899.754ZM357.695 894.124C363.13 899.789 359.43 908.302 351.533 908.302C348.023 908.302 346.935 907.872 345.122 905.767C340.169 900.017 343.979 891.59 351.533 891.59C354.441 891.59 355.801 892.149 357.695 894.124ZM716.573 892.52C723.824 896.396 720.343 908.753 712 908.753C708.562 908.753 702.954 903.742 702.954 900.668C702.954 893.868 710.57 889.312 716.573 892.52ZM1078.63 894.124C1084.06 899.789 1080.37 908.302 1072.47 908.302C1068.96 908.302 1067.87 907.872 1066.06 905.767C1061.1 900.017 1064.91 891.59 1072.47 891.59C1075.38 891.59 1076.74 892.149 1078.63 894.124ZM156.154 1018.61C129.94 1024.94 110.397 1048.39 108.135 1076.24L107.505 1084H117.127H126.749V1078.22C126.749 1061.59 138.475 1044.85 154.688 1038.33C183.377 1026.79 216.191 1048.83 216.287 1079.71L216.301 1084H225.346H234.392L234.377 1078.35C234.267 1039.28 194.946 1009.25 156.154 1018.61ZM517.519 1018.44C489.987 1024.71 468.765 1050.75 468.689 1078.35L468.673 1084H477.719H486.764L486.778 1079.71C486.874 1048.83 519.688 1026.79 548.378 1038.33C564.59 1044.85 576.316 1061.59 576.316 1078.22V1084H585.939H595.56L594.93 1076.24C591.744 1037.03 555.318 1009.83 517.519 1018.44ZM877.089 1018.61C850.875 1024.94 831.332 1048.39 829.07 1076.24L828.44 1084H838.061H847.684V1078.22C847.684 1061.59 859.41 1044.85 875.622 1038.33C904.312 1026.79 937.126 1048.83 937.222 1079.71L937.236 1084H946.281H955.327L955.311 1078.35C955.202 1039.28 915.881 1009.25 877.089 1018.61ZM1238.45 1018.44C1210.92 1024.71 1189.7 1050.75 1189.62 1078.35L1189.61 1084H1198.65H1207.7L1207.71 1079.71C1207.81 1048.83 1240.62 1026.79 1269.31 1038.33C1285.52 1044.85 1297.25 1061.59 1297.25 1078.22V1084H1306.87H1316.5L1315.86 1076.24C1312.68 1037.03 1276.25 1009.83 1238.45 1018.44ZM159.766 1055.45C150.965 1059.61 145.105 1068.35 144.166 1078.7L143.684 1084H153.308H162.932V1080.21C162.932 1072.39 171.248 1068.48 177.128 1073.53C179.223 1075.33 179.666 1076.44 179.666 1079.86V1084H189.059H198.453L198.014 1077.9C196.664 1059.11 176.733 1047.41 159.766 1055.45ZM519.51 1056.05C510.503 1060.54 505.786 1067.67 505.051 1077.9L504.612 1084H514.006H523.399V1079.86C523.399 1076.44 523.842 1075.33 525.937 1073.53C531.817 1068.48 540.133 1072.39 540.133 1080.21V1084H549.757H559.381L558.899 1078.7C557.075 1058.61 537.24 1047.2 519.51 1056.05ZM880.701 1055.45C871.9 1059.61 866.04 1068.35 865.101 1078.7L864.619 1084H874.243H883.867V1080.21C883.867 1072.39 892.183 1068.48 898.063 1073.53C900.158 1075.33 900.601 1076.44 900.601 1079.86V1084H909.994H919.388L918.949 1077.9C917.599 1059.11 897.668 1047.41 880.701 1055.45ZM1240.44 1056.05C1231.44 1060.54 1226.72 1067.67 1225.99 1077.9L1225.55 1084H1234.94H1244.33V1079.86C1244.33 1076.44 1244.78 1075.33 1246.87 1073.53C1252.75 1068.48 1261.07 1072.39 1261.07 1080.21V1084H1270.69H1280.32L1279.83 1078.7C1278.01 1058.61 1258.17 1047.2 1240.44 1056.05Z" fill="white"/>
</svg>
