<svg width="400" height="400" viewBox="0 0 400 400" fill="none" xmlns="http://www.w3.org/2000/svg">
<g clip-path="url(#clip0_614_168)">
<path d="M6092.31 -3207.5H-615.385V900.833H6092.31V-3207.5Z" fill="#D8D8D8"/>
<path d="M400 55H0V87.1417H400V55Z" fill="#DC4437"/>
<path d="M400 119.525H0V151.667H400V119.525Z" fill="#DC4437"/>
<path d="M400 248.333H0V280.475H400V248.333Z" fill="#DC4437"/>
<path d="M400 312.858H0V345H400V312.858Z" fill="#DC4437"/>
<path d="M400 183.808H0V215.95H400V183.808Z" fill="#DC4437"/>
<path d="M400 87.1416H0V119.283H400V87.1416Z" fill="white"/>
<path d="M400 151.667H0V183.808H400V151.667Z" fill="white"/>
<path d="M400 280.475H0V312.617H400V280.475Z" fill="white"/>
<path d="M400 216.192H0V248.333H400V216.192Z" fill="white"/>
<path d="M215.385 55H0V216.192H215.385V55Z" fill="#2A66B7"/>
<path d="M41.5385 64.6667L48.6154 76.5084L64.6154 78.4417L52.9231 87.8667L55.6923 100.917L41.5385 94.6334L27.3846 100.917L30.1539 87.8667L18.4615 78.4417L34.4615 76.5084L41.5385 64.6667Z" fill="white"/>
<path d="M104.615 64.6667L111.692 76.5084L127.692 78.4417L116.308 87.8667L118.769 100.917L104.615 94.6334L90.4615 100.917L92.9231 87.8667L81.5385 78.4417L97.5385 76.5084L104.615 64.6667Z" fill="white"/>
<path d="M167.692 64.6667L174.769 76.5084L190.769 78.4417L179.077 87.8667L181.846 100.917L167.692 94.6334L153.538 100.917L156.308 87.8667L144.615 78.4417L160.615 76.5084L167.692 64.6667Z" fill="white"/>
<path d="M73.8461 113L80.9231 124.842L96.9231 126.775L85.5385 136.2L88 149.25L73.8461 142.967L59.6923 149.25L62.1538 136.2L50.7692 126.775L66.7692 124.842L73.8461 113Z" fill="white"/>
<path d="M136.923 113L144 124.842L160 126.775L148.308 136.2L151.077 149.25L136.923 142.967L122.769 149.25L125.538 136.2L113.846 126.775L129.846 124.842L136.923 113Z" fill="white"/>
<path d="M41.5385 164.233L48.6154 176.075L64.6154 178.008L52.9231 187.192L55.6923 200.483L41.5385 194.2L27.3846 200.483L30.1539 187.192L18.4615 178.008L34.4615 176.075L41.5385 164.233Z" fill="white"/>
<path d="M104.615 164.233L111.692 176.075L127.692 178.008L116.308 187.192L118.769 200.483L104.615 194.2L90.4615 200.483L92.9231 187.192L81.5385 178.008L97.5385 176.075L104.615 164.233Z" fill="white"/>
<path d="M167.692 164.233L174.769 176.075L190.769 178.008L179.077 187.192L181.846 200.483L167.692 194.2L153.538 200.483L156.308 187.192L144.615 178.008L160.615 176.075L167.692 164.233Z" fill="white"/>
</g>
<defs>
<clipPath id="clip0_614_168">
<rect y="55" width="400" height="290" rx="40" fill="white"/>
</clipPath>
</defs>
</svg>
