<svg width="500" height="500" viewBox="0 0 500 500" fill="none" xmlns="http://www.w3.org/2000/svg">
<path d="M94.9985 348.694C67.1414 375.717 103.689 404.646 47.6174 443.931C47.6174 443.931 80.5937 455.002 110.475 417.383C120.713 404.408 132.617 399.05 132.617 399.05C136.665 401.431 133.57 414.646 119.165 425.479C119.165 425.479 141.665 426.075 155.713 412.027C169.76 397.979 179.284 377.742 179.284 377.742C188.927 394.646 164.76 416.075 164.76 416.075C164.76 416.075 187.498 410.123 214.523 383.098C235.475 362.146 250.475 309.883 220.356 279.883C190.237 249.883 136.546 255.242 110.237 281.669C98.6889 293.217 86.9033 311.194 85.3556 325.956C85.3556 325.956 107.498 302.027 115.356 312.146C115.356 312.146 77.8556 334.765 71.7841 356.313C71.9033 356.313 90.5937 345.123 94.9985 348.694Z" fill="url(#paint0_linear_596_1432)"/>
<path d="M74.2863 369.294C45.1196 380.96 63.9292 405.483 51.3101 418.102C51.3101 418.102 68.0959 408.935 67.8578 390.96C67.6196 376.317 74.2863 369.294 74.2863 369.294Z" fill="url(#paint1_linear_596_1432)"/>
<path d="M81.0698 454.41C88.5698 453.577 101.189 431.792 118.332 435.363C118.332 435.363 102.975 457.744 81.0698 454.41Z" fill="url(#paint2_linear_596_1432)"/>
<path opacity="0.5" d="M173.332 410.717C182.499 407.265 198.094 399.646 214.523 383.098C232.975 364.646 248.333 312.265 218.094 282.146C188.57 252.623 136.785 258.575 111.904 283.456C102.975 292.383 93.4514 305.838 89.6418 318.217C94.9989 313.456 102.975 307.504 109.642 306.79C113.094 306.431 115.832 307.623 117.737 310.004L119.642 312.383L116.309 314.408C115.951 314.646 86.9037 332.383 77.0229 350.479C83.8085 347.027 93.0941 343.217 96.9037 346.312L99.0466 348.098L96.5466 350.598C86.1896 360.717 85.5941 371.075 85.1181 383.098C84.2848 400.36 83.3323 419.765 54.0466 442.265C64.0466 443.575 86.7848 442.979 108.332 415.956C119.047 402.383 131.427 396.671 131.904 396.431L133.332 395.838L134.404 396.431C136.427 397.623 137.38 400.242 137.023 403.694C136.547 408.456 133.451 415.242 126.785 422.146C134.166 421.194 145.713 418.456 153.927 410.242C167.38 396.79 176.666 377.265 176.785 377.027L179.404 371.431L181.904 375.838C188.332 387.265 181.189 401.194 173.332 410.717Z" fill="url(#paint3_linear_596_1432)"/>
<path d="M51.3101 418.102C59.5244 411.435 67.9767 398.342 67.8578 390.96C67.7386 384.175 69.6434 374.65 74.2863 369.294C53.8101 377.983 56.6671 391.675 59.2863 398.46C60.4767 401.435 58.929 410.246 51.3101 418.102Z" fill="url(#paint4_radial_596_1432)"/>
<path d="M67.1436 438.221C105.953 425.483 116.31 381.435 141.191 373.817C166.191 366.198 159.882 390.008 150.239 400.842C150.239 400.842 183.215 367.746 183.334 341.913C183.572 316.079 218.214 356.435 207.501 377.388C207.501 377.388 260.477 324.413 218.096 282.15C175.715 239.888 119.405 282.031 119.405 282.031C119.405 282.031 151.548 280.721 148.691 304.054C148.691 304.054 123.929 313.46 104.405 329.054C104.405 329.054 113.929 330.127 120.477 339.888C120.477 339.888 91.3102 360.008 92.5006 377.269C94.1673 399.531 79.6436 434.175 67.1436 438.221Z" fill="url(#paint5_linear_596_1432)"/>
<path d="M94.2839 404.765C112.379 400.24 128.332 357.858 153.808 360.24C167.855 361.55 164.641 373.692 164.641 373.692C164.641 373.692 174.403 359.765 176.665 341.073C178.927 322.383 213.808 328.692 212.26 363.931C212.26 363.931 250.594 314.05 204.046 282.265C152.736 247.265 115.117 291.192 115.117 291.192C115.117 291.192 150.236 279.525 155.713 307.383C155.713 307.383 126.665 315.477 115.951 326.192C115.951 326.192 128.332 327.977 131.308 341.192C131.308 341.192 102.736 362.144 103.57 370.477C105.594 390.358 94.2839 404.765 94.2839 404.765Z" fill="url(#paint6_linear_596_1432)"/>
<path opacity="0.5" d="M94.9985 348.694C67.1414 375.717 103.689 404.646 47.6174 443.931C47.6174 443.931 80.5937 455.002 110.475 417.383C120.713 404.408 132.617 399.05 132.617 399.05C136.665 401.431 133.57 414.646 119.165 425.479C119.165 425.479 141.665 426.075 155.713 412.027C169.76 397.979 179.284 377.742 179.284 377.742C188.927 394.646 164.76 416.075 164.76 416.075C164.76 416.075 187.498 410.123 214.523 383.098C235.475 362.146 250.475 309.883 220.356 279.883C190.237 249.883 136.546 255.242 110.237 281.669C98.6889 293.217 86.9033 311.194 85.3556 325.956C85.3556 325.956 107.498 302.027 115.356 312.146C115.356 312.146 77.8556 334.765 71.7841 356.313C71.9033 356.313 90.5937 345.123 94.9985 348.694Z" fill="url(#paint7_radial_596_1432)"/>
<path opacity="0.5" d="M94.9985 348.694C67.1414 375.717 103.689 404.646 47.6174 443.931C47.6174 443.931 80.5937 455.002 110.475 417.383C120.713 404.408 132.617 399.05 132.617 399.05C136.665 401.431 133.57 414.646 119.165 425.479C119.165 425.479 141.665 426.075 155.713 412.027C169.76 397.979 179.284 377.742 179.284 377.742C188.927 394.646 164.76 416.075 164.76 416.075C164.76 416.075 187.498 410.123 214.523 383.098C235.475 362.146 250.475 309.883 220.356 279.883C190.237 249.883 136.546 255.242 110.237 281.669C98.6889 293.217 86.9033 311.194 85.3556 325.956C85.3556 325.956 107.498 302.027 115.356 312.146C115.356 312.146 77.8556 334.765 71.7841 356.313C71.9033 356.313 90.5937 345.123 94.9985 348.694Z" fill="url(#paint8_radial_596_1432)"/>
<path d="M200.475 392.029C227.619 363.1 242.975 311.433 214.642 283.1C186.309 254.767 134.166 278.577 111.07 299.885C111.07 299.885 129.523 292.148 144.047 301.433C158.57 310.719 117.023 326.792 108.332 352.267C108.332 352.267 145.356 330.004 157.023 339.41C168.69 348.815 156.904 378.458 145.713 389.648C145.713 389.648 172.261 376.077 186.547 358.577C208.332 331.792 200.475 392.029 200.475 392.029Z" fill="url(#paint9_radial_596_1432)"/>
<path opacity="0.5" d="M94.9985 348.694C67.1414 375.717 103.689 404.646 47.6174 443.931C47.6174 443.931 80.5937 455.002 110.475 417.383C120.713 404.408 132.617 399.05 132.617 399.05C136.665 401.431 133.57 414.646 119.165 425.479C119.165 425.479 141.665 426.075 155.713 412.027C169.76 397.979 179.284 377.742 179.284 377.742C188.927 394.646 164.76 416.075 164.76 416.075C164.76 416.075 187.498 410.123 214.523 383.098C235.475 362.146 250.475 309.883 220.356 279.883C190.237 249.883 136.546 255.242 110.237 281.669C98.6889 293.217 86.9033 311.194 85.3556 325.956C85.3556 325.956 107.498 302.027 115.356 312.146C115.356 312.146 77.8556 334.765 71.7841 356.313C71.9033 356.313 90.5937 345.123 94.9985 348.694Z" fill="url(#paint10_radial_596_1432)"/>
<path opacity="0.5" d="M74.2863 369.294C45.1196 380.96 63.9292 405.483 51.3101 418.102C51.3101 418.102 68.0959 408.935 67.8578 390.96C67.6196 376.317 74.2863 369.294 74.2863 369.294Z" fill="url(#paint11_radial_596_1432)"/>
<path d="M81.0698 454.402C88.5698 453.569 99.5221 438.21 118.332 435.354C118.332 435.354 102.975 457.735 81.0698 454.402Z" fill="url(#paint12_radial_596_1432)"/>
<path opacity="0.5" d="M81.0698 454.41C88.5698 453.577 101.189 431.792 118.332 435.363C118.332 435.363 102.975 457.744 81.0698 454.41Z" fill="url(#paint13_radial_596_1432)"/>
<path opacity="0.5" d="M94.9985 348.694C67.1414 375.717 103.689 404.646 47.6174 443.931C47.6174 443.931 80.5937 455.002 110.475 417.383C120.713 404.408 132.617 399.05 132.617 399.05C136.665 401.431 133.57 414.646 119.165 425.479C119.165 425.479 141.665 426.075 155.713 412.027C169.76 397.979 179.284 377.742 179.284 377.742C188.927 394.646 164.76 416.075 164.76 416.075C164.76 416.075 187.498 410.123 214.523 383.098C235.475 362.146 250.475 309.883 220.356 279.883C190.237 249.883 136.546 255.242 110.237 281.669C98.6889 293.217 86.9033 311.194 85.3556 325.956C85.3556 325.956 107.498 302.027 115.356 312.146C115.356 312.146 77.8556 334.765 71.7841 356.313C71.9033 356.313 90.5937 345.123 94.9985 348.694Z" fill="url(#paint14_radial_596_1432)"/>
<path opacity="0.25" d="M94.9985 348.694C67.1414 375.717 103.689 404.646 47.6174 443.931C47.6174 443.931 80.5937 455.002 110.475 417.383C120.713 404.408 132.617 399.05 132.617 399.05C136.665 401.431 133.57 414.646 119.165 425.479C119.165 425.479 141.665 426.075 155.713 412.027C169.76 397.979 179.284 377.742 179.284 377.742C188.927 394.646 164.76 416.075 164.76 416.075C164.76 416.075 187.498 410.123 214.523 383.098C235.475 362.146 250.475 309.883 220.356 279.883C190.237 249.883 136.546 255.242 110.237 281.669C98.6889 293.217 86.9033 311.194 85.3556 325.956C85.3556 325.956 107.498 302.027 115.356 312.146C115.356 312.146 77.8556 334.765 71.7841 356.313C71.9033 356.313 90.5937 345.123 94.9985 348.694Z" fill="url(#paint15_radial_596_1432)"/>
<path opacity="0.75" d="M94.9985 348.694C67.1414 375.717 103.689 404.646 47.6174 443.931C47.6174 443.931 80.5937 455.002 110.475 417.383C120.713 404.408 132.617 399.05 132.617 399.05C136.665 401.431 133.57 414.646 119.165 425.479C119.165 425.479 141.665 426.075 155.713 412.027C169.76 397.979 179.284 377.742 179.284 377.742C188.927 394.646 164.76 416.075 164.76 416.075C164.76 416.075 187.498 410.123 214.523 383.098C235.475 362.146 250.475 309.883 220.356 279.883C190.237 249.883 136.546 255.242 110.237 281.669C98.6889 293.217 86.9033 311.194 85.3556 325.956C85.3556 325.956 107.498 302.027 115.356 312.146C115.356 312.146 77.8556 334.765 71.7841 356.313C71.9033 356.313 90.5937 345.123 94.9985 348.694Z" fill="url(#paint16_radial_596_1432)"/>
<path d="M319.877 322.148C317.138 295.602 323.329 267.387 337.377 241.91L341.781 233.815L273.09 278.696L267.377 320.006L240.59 345.721C246.304 368.102 246.544 390.006 246.544 390.006C292.138 362.744 319.877 322.148 319.877 322.148Z" fill="url(#paint17_linear_596_1432)"/>
<path d="M246.664 390.121C246.664 390.121 246.546 367.977 240.712 345.835L252.023 335.002C255.475 342.621 262.26 359.765 263.927 378.692C258.45 382.502 252.735 386.55 246.664 390.121Z" fill="url(#paint18_linear_596_1432)"/>
<path opacity="0.75" d="M319.877 322.148C317.138 295.602 323.329 267.387 337.377 241.91L341.781 233.815L273.09 278.696L267.377 320.006L240.59 345.721C246.304 368.102 246.544 390.006 246.544 390.006C292.138 362.744 319.877 322.148 319.877 322.148Z" fill="url(#paint19_radial_596_1432)"/>
<path d="M326.544 266.546C329.402 258.213 332.973 249.879 337.377 241.902L339.877 237.379C339.281 237.023 338.687 236.665 338.092 236.308L273.21 278.808L269.281 306.665C284.044 300.594 304.996 288.213 326.544 266.546Z" fill="url(#paint20_linear_596_1432)"/>
<path d="M252.021 163.096C251.306 161.43 250.948 160.239 250.354 158.691C224.758 170.834 195.83 174.287 167.973 169.049C167.973 169.049 126.782 196.072 101.425 243.929C101.425 243.929 124.997 246.192 149.758 254.644L175.115 227.381L216.069 225C225.235 204.406 236.306 182.382 252.021 163.096Z" fill="url(#paint21_linear_596_1432)"/>
<path d="M101.425 243.808C101.425 243.808 124.997 246.071 149.758 254.523L160.592 242.856C151.901 238.333 133.092 229.642 112.258 225.952C108.449 231.548 104.758 237.5 101.425 243.808Z" fill="url(#paint22_linear_596_1432)"/>
<path opacity="0.75" d="M252.021 163.096C251.306 161.43 250.948 160.239 250.354 158.691C224.758 170.834 195.83 174.287 167.973 169.049C167.973 169.049 126.782 196.072 101.425 243.929C101.425 243.929 124.997 246.192 149.758 254.644L175.115 227.381L216.069 225C225.235 204.406 236.306 182.382 252.021 163.096Z" fill="url(#paint23_radial_596_1432)"/>
<path d="M250.356 158.569C240.356 166.188 209.048 196.426 198.094 225.831L215.952 224.76C225.119 204.403 239.048 181.903 254.76 162.617L250.356 158.569Z" fill="url(#paint24_linear_596_1432)"/>
<path d="M261.189 152.746C271.785 170.008 285.833 187.151 301.427 202.389C302.142 203.103 302.975 203.818 303.689 204.532C316.904 217.15 331.189 228.342 345.714 237.271C347.023 235.96 348.333 234.771 349.642 233.46C387.142 195.961 408.927 167.746 427.619 131.913C414.285 106.08 392.381 84.1748 366.548 70.8414C330.714 89.5319 302.619 111.199 265 148.818C263.689 150.127 262.381 151.437 261.189 152.746Z" fill="url(#paint25_linear_596_1432)"/>
<path d="M427.496 131.908C452.852 83.2173 449.639 57.0267 445.473 52.86C441.306 48.6933 415.233 45.4792 366.425 70.8362C392.258 84.1696 414.162 106.074 427.496 131.908Z" fill="url(#paint26_linear_596_1432)"/>
<path d="M218.212 280.24C231.667 293.694 244.046 303.573 247.379 303.573C277.619 290.36 313.689 268.217 345.714 237.265C331.308 228.335 316.904 217.146 303.689 204.526C302.975 203.812 302.142 203.098 301.427 202.383C285.833 187.145 271.785 170.002 261.189 152.74C230.237 184.764 208.094 221.073 194.88 251.312C195.356 255.002 204.999 267.146 218.212 280.24Z" fill="url(#paint27_linear_596_1432)"/>
<path opacity="0.75" d="M218.212 280.24C231.667 293.694 244.046 303.573 247.379 303.573C277.619 290.36 313.689 268.217 345.714 237.265C331.308 228.335 316.904 217.146 303.689 204.526C302.975 203.812 302.142 203.098 301.427 202.383C285.833 187.145 271.785 170.002 261.189 152.74C230.237 184.764 208.094 221.073 194.88 251.312C195.356 255.002 204.999 267.146 218.212 280.24Z" fill="url(#paint28_radial_596_1432)"/>
<path opacity="0.5" d="M303.69 204.526C302.975 203.812 302.142 203.098 301.427 202.383C285.833 187.145 271.785 170.002 261.19 152.74C260.356 153.574 259.642 154.407 258.927 155.24C280.594 196.193 346.785 235.24 296.308 255.835C263.215 269.406 248.333 285.479 240.356 299.765C243.69 302.265 246.308 303.573 247.5 303.573C277.737 290.36 313.808 268.217 345.833 237.265C331.19 228.335 316.904 217.146 303.69 204.526Z" fill="url(#paint29_radial_596_1432)"/>
<path d="M218.21 280.242C205.116 267.146 195.473 255.002 194.878 251.312L176.306 259.527C174.163 261.669 186.306 277.502 203.687 294.765C220.948 312.027 236.781 324.288 238.925 322.146L247.377 303.575C244.044 303.575 231.663 293.694 218.21 280.242Z" fill="url(#paint30_linear_596_1432)"/>
<path d="M218.21 280.242C205.116 267.146 195.473 255.002 194.878 251.312L176.306 259.527C174.163 261.669 186.306 277.502 203.687 294.765C220.948 312.027 236.781 324.288 238.925 322.146L247.377 303.575C244.044 303.575 231.663 293.694 218.21 280.242Z" fill="url(#paint31_linear_596_1432)"/>
<path d="M422.381 141.437C422.619 141.08 427.381 132.27 427.5 131.913C414.167 106.08 392.26 84.1748 366.427 70.8414C366.071 71.0796 365.715 71.1985 365.356 71.4367C390.715 85.8414 419.404 118.222 422.381 141.437Z" fill="url(#paint32_linear_596_1432)"/>
<path opacity="0.75" d="M445.477 52.86C441.31 48.6933 415.24 45.4792 366.429 70.8362C330.596 89.5267 302.502 111.194 264.881 148.812C263.573 150.122 262.381 151.431 261.073 152.741C230.121 184.765 207.978 221.075 194.763 251.312C195.358 255.002 205.001 267.146 218.096 280.242C231.548 293.694 243.929 303.575 247.263 303.575C277.502 290.36 313.573 268.217 345.596 237.265C346.906 235.956 348.217 234.765 349.525 233.456C387.025 195.955 408.81 167.741 427.502 131.908C452.977 83.2173 449.763 57.0267 445.477 52.86Z" fill="url(#paint33_radial_596_1432)"/>
<path d="M189.402 340.962C229.402 308.7 260.712 272.748 261.546 271.796L255.354 265.604C255.354 265.604 222.735 301.2 183.807 335.367L189.402 340.962Z" fill="url(#paint34_linear_596_1432)"/>
<path d="M255.235 265.602C262.498 251.794 274.758 234.413 290.473 215.723C290.117 215.365 289.758 215.008 289.283 214.65C272.258 230.842 255.354 245.483 240.235 258.342L222.617 284.175L196.068 310.246C191.425 321.912 183.568 335.365 183.568 335.365C222.617 301.198 255.235 265.602 255.235 265.602Z" fill="url(#paint35_linear_596_1432)"/>
<path d="M197.495 322.981C197.495 322.981 206.78 306.196 205.947 300.721L196.185 310.362C191.542 322.029 183.685 335.481 183.685 335.481C188.447 331.196 192.971 327.029 197.495 322.981Z" fill="url(#paint36_linear_596_1432)"/>
<path d="M261.546 271.8C266.783 255.848 278.569 237.992 293.687 218.585C292.617 217.633 291.664 216.681 290.594 215.729C274.879 234.419 262.617 251.8 255.354 265.61C255.354 265.61 222.735 301.204 183.807 335.371L189.522 340.967C229.879 308.348 261.546 271.8 261.546 271.8Z" fill="url(#paint37_linear_596_1432)"/>
<path d="M189.402 340.962C229.402 308.7 260.712 272.748 261.546 271.796L255.354 265.604C255.354 265.604 222.735 301.2 183.807 335.367L189.402 340.962Z" fill="url(#paint38_linear_596_1432)"/>
<path opacity="0.75" d="M255.235 265.602C262.498 251.794 274.758 234.413 290.473 215.723C290.117 215.365 289.758 215.008 289.283 214.65C272.258 230.842 255.354 245.483 240.235 258.342L222.617 284.175L196.068 310.246C191.425 321.912 183.568 335.365 183.568 335.365C222.617 301.198 255.235 265.602 255.235 265.602Z" fill="url(#paint39_radial_596_1432)"/>
<path opacity="0.75" d="M445.477 52.86C441.31 48.6933 415.24 45.4792 366.429 70.8362C330.596 89.5267 302.502 111.194 264.881 148.812C263.573 150.122 262.381 151.431 261.073 152.741C230.121 184.765 207.978 221.075 194.763 251.312C195.358 255.002 205.001 267.146 218.096 280.242C231.548 293.694 243.929 303.575 247.263 303.575C277.502 290.36 313.573 268.217 345.596 237.265C346.906 235.956 348.217 234.765 349.525 233.456C387.025 195.955 408.81 167.741 427.502 131.908C452.977 83.2173 449.763 57.0267 445.477 52.86Z" fill="url(#paint40_radial_596_1432)"/>
<g opacity="0.16">
<path opacity="0.16" d="M360.356 222.742C344.642 213.456 328.331 200.837 312.856 185.48C297.498 170.123 284.879 153.814 275.594 137.98" stroke="black" stroke-width="0.5" stroke-miterlimit="10" stroke-linecap="round" stroke-linejoin="round"/>
<path opacity="0.16" d="M407.023 137.868C410.594 142.273 413.808 146.559 416.904 150.844" stroke="black" stroke-width="0.5" stroke-miterlimit="10" stroke-linecap="round" stroke-linejoin="round"/>
<g opacity="0.16">
<path opacity="0.16" d="M387.733 84.0556C386.185 85.1271 384.637 86.3175 383.092 87.5079C351.9 110.841 325.471 134.294 287.971 171.794C286.662 173.103 285.352 174.413 284.162 175.722C282.971 177.032 281.662 178.222 280.471 179.532" stroke="black" stroke-width="0.5" stroke-miterlimit="10" stroke-linecap="round" stroke-linejoin="round"/>
</g>
<path opacity="0.16" d="M343.806 211.915C376.781 178.343 397.854 152.867 417.733 122.152C418.567 120.962 419.281 119.772 419.996 118.581" stroke="black" stroke-width="0.5" stroke-miterlimit="10" stroke-linecap="round" stroke-linejoin="round"/>
</g>
<path opacity="0.75" d="M238.927 295.119C266.308 279.167 300.237 254.644 332.023 223.571L238.927 295.119Z" fill="url(#paint41_radial_596_1432)"/>
<path d="M361.662 155.956C346.425 170.003 323.806 170.122 311.185 156.194C298.567 142.265 300.829 119.527 316.067 105.48C331.306 91.4319 353.925 91.3129 366.544 105.241C379.162 119.17 376.9 141.908 361.662 155.956Z" fill="url(#paint42_linear_596_1432)"/>
<path d="M355.115 148.095C342.615 159.643 324.044 159.762 313.687 148.333C303.329 136.905 305.115 118.214 317.733 106.666C330.235 95.1189 348.806 94.9998 359.162 106.429C369.402 117.857 367.615 136.547 355.115 148.095Z" fill="url(#paint43_linear_596_1432)"/>
<path d="M352.139 145.004C340.948 155.361 324.4 155.361 315.233 145.242C306.067 135.004 307.614 118.456 318.804 108.099C329.996 97.7419 346.544 97.7419 355.71 107.861C364.877 117.98 363.329 134.646 352.139 145.004Z" fill="url(#paint44_radial_596_1432)"/>
<path opacity="0.5" d="M352.139 145.004C340.948 155.361 324.4 155.361 315.233 145.242C306.067 135.004 307.614 118.456 318.804 108.099C329.996 97.7419 346.544 97.7419 355.71 107.861C364.877 117.98 363.329 134.646 352.139 145.004Z" fill="url(#paint45_radial_596_1432)"/>
<path opacity="0.5" d="M353.567 115.484C357.733 120.127 359.996 125.96 360.471 132.032C363.09 123.579 361.663 114.413 355.71 107.865C346.544 97.6271 329.996 97.746 318.804 108.103C317.733 109.175 316.663 110.246 315.71 111.437C328.448 103.699 344.163 105.127 353.567 115.484Z" fill="black"/>
<path d="M355.71 107.865C346.544 97.6271 329.996 97.746 318.804 108.103C307.614 118.46 306.067 135.008 315.233 145.246C316.185 146.317 317.137 147.032 316.544 146.556C308.329 138.341 310.829 121.437 321.425 110.841C329.996 102.27 346.425 99.1748 355.71 107.865Z" fill="url(#paint46_linear_596_1432)"/>
<path opacity="0.5" d="M355.713 107.861C346.427 99.0514 329.879 102.266 321.427 110.718C311.308 120.837 308.571 136.789 315.475 145.361C316.546 145.956 317.023 147.027 316.427 146.551C316.071 146.194 315.713 145.837 315.475 145.361C315.356 145.361 315.238 145.242 315.117 145.242C324.283 155.48 340.831 155.361 352.023 145.004C363.331 134.647 364.998 118.099 355.713 107.861Z" fill="url(#paint47_radial_596_1432)"/>
<path d="M427.735 131.55C414.402 105.716 392.735 83.9306 366.902 70.5973" stroke="#008EE6" stroke-width="0.75" stroke-miterlimit="10" stroke-linecap="round" stroke-linejoin="round"/>
<path d="M345.714 237.265C331.308 228.335 316.904 217.146 303.689 204.526C302.975 203.812 302.142 203.098 301.427 202.383C285.833 187.145 271.785 170.002 261.189 152.74" stroke="#008EE6" stroke-width="0.75" stroke-miterlimit="10" stroke-linecap="round" stroke-linejoin="round"/>
<defs>
<linearGradient id="paint0_linear_596_1432" x1="213.727" y1="264.313" x2="24.1595" y2="514.573" gradientUnits="userSpaceOnUse">
<stop stop-color="#FF0000"/>
<stop offset="0.2317" stop-color="#FF1500"/>
<stop offset="0.7367" stop-color="#FF3D00"/>
<stop offset="0.9987" stop-color="#FF4C00"/>
</linearGradient>
<linearGradient id="paint1_linear_596_1432" x1="177.316" y1="240.769" x2="-9.96642" y2="488.013" gradientUnits="userSpaceOnUse">
<stop stop-color="#FF0000"/>
<stop offset="0.2317" stop-color="#FF1500"/>
<stop offset="0.7367" stop-color="#FF3D00"/>
<stop offset="0.9987" stop-color="#FF4C00"/>
</linearGradient>
<linearGradient id="paint2_linear_596_1432" x1="230.796" y1="271.877" x2="38.6826" y2="525.494" gradientUnits="userSpaceOnUse">
<stop stop-color="#FF0000"/>
<stop offset="0.2317" stop-color="#FF1500"/>
<stop offset="0.7367" stop-color="#FF3D00"/>
<stop offset="0.9987" stop-color="#FF4C00"/>
</linearGradient>
<linearGradient id="paint3_linear_596_1432" x1="176.168" y1="303.548" x2="54.0877" y2="557.185" gradientUnits="userSpaceOnUse">
<stop stop-color="#FF8000"/>
<stop offset="0.6388" stop-color="#FF5B00"/>
<stop offset="0.9987" stop-color="#FF4C00"/>
</linearGradient>
<radialGradient id="paint4_radial_596_1432" cx="0" cy="0" r="1" gradientUnits="userSpaceOnUse" gradientTransform="translate(1.81646 436.298) rotate(-135) scale(98.4596 125.028)">
<stop offset="0.00134333" stop-color="#FFED1C" stop-opacity="0.6"/>
<stop offset="0.9477" stop-color="#FFED1C" stop-opacity="0.0264782"/>
<stop offset="0.9914" stop-color="#FFED1C" stop-opacity="0"/>
</radialGradient>
<linearGradient id="paint5_linear_596_1432" x1="77.1688" y1="454.635" x2="187.334" y2="296.669" gradientUnits="userSpaceOnUse">
<stop stop-color="#FF8000"/>
<stop offset="0.022669" stop-color="#FE7F02" stop-opacity="0.9773"/>
<stop offset="0.6663" stop-color="#ED582A" stop-opacity="0.3337"/>
<stop offset="1" stop-color="#E74939" stop-opacity="0"/>
</linearGradient>
<linearGradient id="paint6_linear_596_1432" x1="203.735" y1="291.246" x2="104.112" y2="380.504" gradientUnits="userSpaceOnUse">
<stop stop-color="#FFBC47"/>
<stop offset="0.1869" stop-color="#FFB137" stop-opacity="0.8131"/>
<stop offset="0.7223" stop-color="#FF940F" stop-opacity="0.2777"/>
<stop offset="1" stop-color="#FF8900" stop-opacity="0"/>
</linearGradient>
<radialGradient id="paint7_radial_596_1432" cx="0" cy="0" r="1" gradientUnits="userSpaceOnUse" gradientTransform="translate(178.437 317.688) rotate(-135) scale(76.164 78.5063)">
<stop offset="0.00134333" stop-color="#FFBC47"/>
<stop offset="0.2941" stop-color="#FFBF4B" stop-opacity="0.7068"/>
<stop offset="0.5624" stop-color="#FEC656" stop-opacity="0.4382"/>
<stop offset="0.8201" stop-color="#FCD368" stop-opacity="0.1801"/>
<stop offset="1" stop-color="#FBE07A" stop-opacity="0"/>
</radialGradient>
<radialGradient id="paint8_radial_596_1432" cx="0" cy="0" r="1" gradientUnits="userSpaceOnUse" gradientTransform="translate(175.626 320.5) rotate(-135) scale(73.8171 76.0871)">
<stop offset="0.00134333" stop-color="white"/>
<stop offset="1" stop-color="white" stop-opacity="0"/>
</radialGradient>
<radialGradient id="paint9_radial_596_1432" cx="0" cy="0" r="1" gradientUnits="userSpaceOnUse" gradientTransform="translate(211.298 330.604) rotate(-135) scale(90.679 134.084)">
<stop offset="0.00134333" stop-color="#FFED1C" stop-opacity="0.6"/>
<stop offset="0.9477" stop-color="#FFED1C" stop-opacity="0.0264782"/>
<stop offset="0.9914" stop-color="#FFED1C" stop-opacity="0"/>
</radialGradient>
<radialGradient id="paint10_radial_596_1432" cx="0" cy="0" r="1" gradientUnits="userSpaceOnUse" gradientTransform="translate(176.745 319.898) rotate(-42.7273) scale(36.3865 23.2769)">
<stop offset="0.00134333" stop-color="white"/>
<stop offset="1" stop-color="white" stop-opacity="0"/>
</radialGradient>
<radialGradient id="paint11_radial_596_1432" cx="0" cy="0" r="1" gradientUnits="userSpaceOnUse" gradientTransform="translate(52.9663 420.754) rotate(-135) scale(32.5302 41.3081)">
<stop offset="0.00134333" stop-color="#FFED1C"/>
<stop offset="0.1997" stop-color="#FFEE2B" stop-opacity="0.8013"/>
<stop offset="0.5839" stop-color="#FFF254" stop-opacity="0.4167"/>
<stop offset="1" stop-color="#FFF686" stop-opacity="0"/>
</radialGradient>
<radialGradient id="paint12_radial_596_1432" cx="0" cy="0" r="1" gradientUnits="userSpaceOnUse" gradientTransform="translate(105.448 444.248) rotate(162.598) scale(31.46 6.36553)">
<stop offset="0.00134333" stop-color="#FFED1C" stop-opacity="0.6"/>
<stop offset="0.9477" stop-color="#FFED1C" stop-opacity="0.0264782"/>
<stop offset="0.9914" stop-color="#FFED1C" stop-opacity="0"/>
</radialGradient>
<radialGradient id="paint13_radial_596_1432" cx="0" cy="0" r="1" gradientUnits="userSpaceOnUse" gradientTransform="translate(83.1719 459.002) rotate(-41.019) scale(30.0271 9.54017)">
<stop offset="0.00134333" stop-color="#FFED1C"/>
<stop offset="0.1997" stop-color="#FFEE2B" stop-opacity="0.8013"/>
<stop offset="0.5839" stop-color="#FFF254" stop-opacity="0.4167"/>
<stop offset="1" stop-color="#FFF686" stop-opacity="0"/>
</radialGradient>
<radialGradient id="paint14_radial_596_1432" cx="0" cy="0" r="1" gradientUnits="userSpaceOnUse" gradientTransform="translate(54.3272 429.61) rotate(-135) scale(101.504 128.894)">
<stop offset="0.00134333" stop-color="#FF4C00"/>
<stop offset="0.135" stop-color="#FF5B0C" stop-opacity="0.8661"/>
<stop offset="0.3941" stop-color="#FF842C" stop-opacity="0.6067"/>
<stop offset="0.7491" stop-color="#FFC45F" stop-opacity="0.2512"/>
<stop offset="1" stop-color="#FFF686" stop-opacity="0"/>
</radialGradient>
<radialGradient id="paint15_radial_596_1432" cx="0" cy="0" r="1" gradientUnits="userSpaceOnUse" gradientTransform="translate(95.5216 323.127) rotate(-135) scale(53.8767 68.4148)">
<stop offset="0.00134333" stop-color="#FFED1C"/>
<stop offset="0.1997" stop-color="#FFEE2B" stop-opacity="0.8013"/>
<stop offset="0.5839" stop-color="#FFF254" stop-opacity="0.4167"/>
<stop offset="1" stop-color="#FFF686" stop-opacity="0"/>
</radialGradient>
<radialGradient id="paint16_radial_596_1432" cx="0" cy="0" r="1" gradientUnits="userSpaceOnUse" gradientTransform="translate(175.573 325.61) rotate(-135) scale(112.663 143.064)">
<stop offset="0.00134333" stop-color="#FFED1C"/>
<stop offset="0.1997" stop-color="#FFEE2B" stop-opacity="0.8013"/>
<stop offset="0.5839" stop-color="#FFF254" stop-opacity="0.4167"/>
<stop offset="1" stop-color="#FFF686" stop-opacity="0"/>
</radialGradient>
<linearGradient id="paint17_linear_596_1432" x1="204.244" y1="401.338" x2="326.333" y2="269.673" gradientUnits="userSpaceOnUse">
<stop stop-color="#BD2719"/>
<stop offset="0.2151" stop-color="#D41A10"/>
<stop offset="0.5049" stop-color="#EC0C07"/>
<stop offset="0.774" stop-color="#FA0302"/>
<stop offset="1" stop-color="#FF0000"/>
</linearGradient>
<linearGradient id="paint18_linear_596_1432" x1="275.227" y1="339.644" x2="236.925" y2="377.262" gradientUnits="userSpaceOnUse">
<stop stop-color="#FC8D41"/>
<stop offset="0.0900324" stop-color="#FC7837"/>
<stop offset="0.294" stop-color="#FD4D24"/>
<stop offset="0.4922" stop-color="#FE2C14"/>
<stop offset="0.6802" stop-color="#FF1409"/>
<stop offset="0.854" stop-color="#FF0502"/>
<stop offset="1" stop-color="#FF0000"/>
</linearGradient>
<radialGradient id="paint19_radial_596_1432" cx="0" cy="0" r="1" gradientUnits="userSpaceOnUse" gradientTransform="translate(186.635 384.71) rotate(45) scale(165.175)">
<stop offset="0.00134333" stop-color="#FFED1C"/>
<stop offset="0.1997" stop-color="#FFEE2B" stop-opacity="0.8013"/>
<stop offset="0.5839" stop-color="#FFF254" stop-opacity="0.4167"/>
<stop offset="1" stop-color="#FFF686" stop-opacity="0"/>
</radialGradient>
<linearGradient id="paint20_linear_596_1432" x1="278.083" y1="297.921" x2="467.315" y2="78.5919" gradientUnits="userSpaceOnUse">
<stop stop-color="#BD2719"/>
<stop offset="0.2151" stop-color="#D41A10"/>
<stop offset="0.5049" stop-color="#EC0C07"/>
<stop offset="0.774" stop-color="#FA0302"/>
<stop offset="1" stop-color="#FF0000"/>
</linearGradient>
<linearGradient id="paint21_linear_596_1432" x1="86.7882" y1="248.496" x2="202.084" y2="191.912" gradientUnits="userSpaceOnUse">
<stop stop-color="#BD2719"/>
<stop offset="0.2151" stop-color="#D41A10"/>
<stop offset="0.5049" stop-color="#EC0C07"/>
<stop offset="0.774" stop-color="#FA0302"/>
<stop offset="1" stop-color="#FF0000"/>
</linearGradient>
<linearGradient id="paint22_linear_596_1432" x1="152.606" y1="215.09" x2="116.355" y2="258.179" gradientUnits="userSpaceOnUse">
<stop stop-color="#FC8D41"/>
<stop offset="0.0900324" stop-color="#FC7837"/>
<stop offset="0.294" stop-color="#FD4D24"/>
<stop offset="0.4922" stop-color="#FE2C14"/>
<stop offset="0.6802" stop-color="#FF1409"/>
<stop offset="0.854" stop-color="#FF0502"/>
<stop offset="1" stop-color="#FF0000"/>
</linearGradient>
<radialGradient id="paint23_radial_596_1432" cx="0" cy="0" r="1" gradientUnits="userSpaceOnUse" gradientTransform="translate(170.22 319.044) rotate(45) scale(177.663)">
<stop offset="0.00134333" stop-color="#FFED1C"/>
<stop offset="0.1997" stop-color="#FFEE2B" stop-opacity="0.8013"/>
<stop offset="0.5839" stop-color="#FFF254" stop-opacity="0.4167"/>
<stop offset="1" stop-color="#FFF686" stop-opacity="0"/>
</radialGradient>
<linearGradient id="paint24_linear_596_1432" x1="246.227" y1="191.19" x2="60.2795" y2="199.886" gradientUnits="userSpaceOnUse">
<stop stop-color="#BD2719"/>
<stop offset="0.2151" stop-color="#D41A10"/>
<stop offset="0.5049" stop-color="#EC0C07"/>
<stop offset="0.774" stop-color="#FA0302"/>
<stop offset="1" stop-color="#FF0000"/>
</linearGradient>
<linearGradient id="paint25_linear_596_1432" x1="313.502" y1="111.478" x2="388.333" y2="186.309" gradientUnits="userSpaceOnUse">
<stop stop-color="#BBCACC"/>
<stop offset="0.3717" stop-color="white"/>
<stop offset="1" stop-color="#99AFB3"/>
</linearGradient>
<linearGradient id="paint26_linear_596_1432" x1="440.344" y1="106.409" x2="399.606" y2="53.5398" gradientUnits="userSpaceOnUse">
<stop stop-color="#008EE6"/>
<stop offset="0.688" stop-color="#80DAFE"/>
<stop offset="0.7325" stop-color="#76D5FB"/>
<stop offset="0.8071" stop-color="#5CC8F3"/>
<stop offset="0.9026" stop-color="#32B2E6"/>
<stop offset="1" stop-color="#0099D6"/>
</linearGradient>
<linearGradient id="paint27_linear_596_1432" x1="297.012" y1="273.502" x2="211.973" y2="188.918" gradientUnits="userSpaceOnUse">
<stop stop-color="#008EE6"/>
<stop offset="0.688" stop-color="#80DAFE"/>
<stop offset="0.7325" stop-color="#76D5FB"/>
<stop offset="0.8071" stop-color="#5CC8F3"/>
<stop offset="0.9026" stop-color="#32B2E6"/>
<stop offset="1" stop-color="#0099D6"/>
</linearGradient>
<radialGradient id="paint28_radial_596_1432" cx="0" cy="0" r="1" gradientUnits="userSpaceOnUse" gradientTransform="translate(239.281 301.55) rotate(45) scale(80.9162 148.1)">
<stop stop-opacity="0.75"/>
<stop offset="1" stop-opacity="0"/>
</radialGradient>
<radialGradient id="paint29_radial_596_1432" cx="0" cy="0" r="1" gradientUnits="userSpaceOnUse" gradientTransform="translate(333.579 282.487) rotate(45) scale(80.9163 148.1)">
<stop stop-opacity="0.75"/>
<stop offset="1" stop-opacity="0"/>
</radialGradient>
<linearGradient id="paint30_linear_596_1432" x1="186.888" y1="250.592" x2="240.227" y2="320.629" gradientUnits="userSpaceOnUse">
<stop/>
<stop offset="0.1962" stop-color="#4D4D4C"/>
<stop offset="0.7655"/>
</linearGradient>
<linearGradient id="paint31_linear_596_1432" x1="186.888" y1="250.592" x2="240.227" y2="320.629" gradientUnits="userSpaceOnUse">
<stop stop-opacity="0"/>
<stop offset="0.1975" stop-color="#CFDCDE" stop-opacity="0.5"/>
<stop offset="0.7655" stop-opacity="0"/>
</linearGradient>
<linearGradient id="paint32_linear_596_1432" x1="298.61" y1="84.2692" x2="420.929" y2="112.198" gradientUnits="userSpaceOnUse">
<stop stop-color="#BBCACC"/>
<stop offset="0.3717" stop-color="white"/>
<stop offset="1" stop-color="#99AFB3"/>
</linearGradient>
<radialGradient id="paint33_radial_596_1432" cx="0" cy="0" r="1" gradientUnits="userSpaceOnUse" gradientTransform="translate(334.917 237.517) rotate(44.2342) scale(52.2075 169.064)">
<stop stop-color="#440063" stop-opacity="0.75"/>
<stop offset="1" stop-color="#420061" stop-opacity="0"/>
</radialGradient>
<linearGradient id="paint34_linear_596_1432" x1="180.432" y1="330.344" x2="320.989" y2="239.717" gradientUnits="userSpaceOnUse">
<stop stop-color="#BD2719"/>
<stop offset="0.2151" stop-color="#D41A10"/>
<stop offset="0.5049" stop-color="#EC0C07"/>
<stop offset="0.774" stop-color="#FA0302"/>
<stop offset="1" stop-color="#FF0000"/>
</linearGradient>
<linearGradient id="paint35_linear_596_1432" x1="157.599" y1="335.121" x2="230.092" y2="279.927" gradientUnits="userSpaceOnUse">
<stop stop-color="#BD2719"/>
<stop offset="0.2151" stop-color="#D41A10"/>
<stop offset="0.5049" stop-color="#EC0C07"/>
<stop offset="0.774" stop-color="#FA0302"/>
<stop offset="1" stop-color="#FF0000"/>
</linearGradient>
<linearGradient id="paint36_linear_596_1432" x1="226.554" y1="288.656" x2="185.059" y2="327.415" gradientUnits="userSpaceOnUse">
<stop stop-color="#FC8D41"/>
<stop offset="0.0900324" stop-color="#FC7837"/>
<stop offset="0.294" stop-color="#FD4D24"/>
<stop offset="0.4922" stop-color="#FE2C14"/>
<stop offset="0.6802" stop-color="#FF1409"/>
<stop offset="0.854" stop-color="#FF0502"/>
<stop offset="1" stop-color="#FF0000"/>
</linearGradient>
<linearGradient id="paint37_linear_596_1432" x1="225.196" y1="315.523" x2="274.371" y2="174.799" gradientUnits="userSpaceOnUse">
<stop stop-color="#BD2719"/>
<stop offset="0.2151" stop-color="#D41A10"/>
<stop offset="0.5049" stop-color="#EC0C07"/>
<stop offset="0.774" stop-color="#FA0302"/>
<stop offset="1" stop-color="#FF0000"/>
</linearGradient>
<linearGradient id="paint38_linear_596_1432" x1="180.432" y1="330.344" x2="320.989" y2="239.717" gradientUnits="userSpaceOnUse">
<stop stop-color="#BD2719"/>
<stop offset="0.2151" stop-color="#D41A10"/>
<stop offset="0.5049" stop-color="#EC0C07"/>
<stop offset="0.774" stop-color="#FA0302"/>
<stop offset="1" stop-color="#FF0000"/>
</linearGradient>
<radialGradient id="paint39_radial_596_1432" cx="0" cy="0" r="1" gradientUnits="userSpaceOnUse" gradientTransform="translate(179.216 318.025) rotate(-39.0499) scale(124.484 41.7448)">
<stop offset="0.00134333" stop-color="#FFED1C"/>
<stop offset="0.1997" stop-color="#FFEE2B" stop-opacity="0.8013"/>
<stop offset="0.5839" stop-color="#FFF254" stop-opacity="0.4167"/>
<stop offset="1" stop-color="#FFF686" stop-opacity="0"/>
</radialGradient>
<radialGradient id="paint40_radial_596_1432" cx="0" cy="0" r="1" gradientUnits="userSpaceOnUse" gradientTransform="translate(298.804 152.394) rotate(44.2342) scale(52.2075 169.064)">
<stop stop-color="white" stop-opacity="0.5"/>
<stop offset="1" stop-color="white" stop-opacity="0"/>
</radialGradient>
<radialGradient id="paint41_radial_596_1432" cx="0" cy="0" r="1" gradientUnits="userSpaceOnUse" gradientTransform="translate(287.233 271.84) rotate(43.8644) scale(12.676 60.8652)">
<stop stop-color="#440063" stop-opacity="0.75"/>
<stop offset="1" stop-color="#420061" stop-opacity="0"/>
</radialGradient>
<linearGradient id="paint42_linear_596_1432" x1="319.15" y1="173.153" x2="358.402" y2="88.6262" gradientUnits="userSpaceOnUse">
<stop stop-color="#BD2719"/>
<stop offset="0.2151" stop-color="#D41A10"/>
<stop offset="0.5049" stop-color="#EC0C07"/>
<stop offset="0.774" stop-color="#FA0302"/>
<stop offset="1" stop-color="#FF0000"/>
</linearGradient>
<linearGradient id="paint43_linear_596_1432" x1="347.127" y1="91.7298" x2="325.752" y2="162.692" gradientUnits="userSpaceOnUse">
<stop stop-color="#FC8D41"/>
<stop offset="0.0900324" stop-color="#FC7837"/>
<stop offset="0.294" stop-color="#FD4D24"/>
<stop offset="0.4922" stop-color="#FE2C14"/>
<stop offset="0.6802" stop-color="#FF1409"/>
<stop offset="0.854" stop-color="#FF0502"/>
<stop offset="1" stop-color="#FF0000"/>
</linearGradient>
<radialGradient id="paint44_radial_596_1432" cx="0" cy="0" r="1" gradientUnits="userSpaceOnUse" gradientTransform="translate(325.431 127.653) rotate(44.996) scale(69.0342 69.0294)">
<stop stop-color="#512D00"/>
<stop offset="1"/>
</radialGradient>
<radialGradient id="paint45_radial_596_1432" cx="0" cy="0" r="1" gradientUnits="userSpaceOnUse" gradientTransform="translate(338.871 113.987) scale(60.5656 60.5656)">
<stop offset="0.4873" stop-color="#F5CBC0" stop-opacity="0"/>
<stop offset="1" stop-color="#E67E62"/>
</radialGradient>
<linearGradient id="paint46_linear_596_1432" x1="333.262" y1="105.474" x2="335.842" y2="59.6885" gradientUnits="userSpaceOnUse">
<stop stop-color="#BD2719"/>
<stop offset="0.0422031" stop-color="#B42717"/>
<stop offset="0.257" stop-color="#89250F"/>
<stop offset="0.4654" stop-color="#682408"/>
<stop offset="0.6634" stop-color="#502304"/>
<stop offset="0.8464" stop-color="#412201"/>
<stop offset="1" stop-color="#3C2200"/>
</linearGradient>
<radialGradient id="paint47_radial_596_1432" cx="0" cy="0" r="1" gradientUnits="userSpaceOnUse" gradientTransform="translate(253.429 99.1552) scale(82.129)">
<stop stop-color="white" stop-opacity="0.5"/>
<stop offset="1" stop-color="white" stop-opacity="0"/>
</radialGradient>
</defs>
</svg>
